<svg width="764" height="566" viewBox="0 0 764 566" fill="none" xmlns="http://www.w3.org/2000/svg">
<path d="M121.865 250.648C162.11 250.648 194.735 218.023 194.735 177.778C194.735 137.533 162.11 104.908 121.865 104.908C81.6207 104.908 48.9958 137.533 48.9958 177.778C48.9958 218.023 81.6207 250.648 121.865 250.648Z" fill="#EFECE7"/>
<path d="M112.825 250.648C153.069 250.648 185.694 218.023 185.694 177.778C185.694 137.533 153.069 104.908 112.825 104.908C72.5798 104.908 39.955 137.533 39.955 177.778C39.955 218.023 72.5798 250.648 112.825 250.648Z" fill="white" stroke="#ECE8E5" stroke-miterlimit="10"/>
<path d="M112.825 104.908V250.636" stroke="#ECE8E5" stroke-miterlimit="10"/>
<path d="M39.955 177.778H185.683" stroke="#ECE8E5" stroke-miterlimit="10"/>
<path d="M641.22 249.517C681.465 249.517 714.089 216.893 714.089 176.648C714.089 136.403 681.465 103.778 641.22 103.778C600.975 103.778 568.35 136.403 568.35 176.648C568.35 216.893 600.975 249.517 641.22 249.517Z" fill="#EFECE7"/>
<path d="M651.391 250.648C691.635 250.648 724.26 218.023 724.26 177.778C724.26 137.533 691.635 104.908 651.391 104.908C611.146 104.908 578.521 137.533 578.521 177.778C578.521 218.023 611.146 250.648 651.391 250.648Z" fill="white" stroke="#ECE8E5" stroke-miterlimit="10"/>
<path d="M651.391 104.908V250.636" stroke="#ECE8E5" stroke-miterlimit="10"/>
<path d="M578.532 177.778H724.26" stroke="#ECE8E5" stroke-miterlimit="10"/>
<path d="M664.636 419.272H99.5797V565.056H664.636V419.272Z" fill="white"/>
<path d="M1 543.041L148.841 419.272" stroke="#ECE8E5" stroke-miterlimit="10"/>
<path d="M191.548 543.041L265.48 419.272" stroke="#ECE8E5" stroke-miterlimit="10"/>
<path d="M382.108 543.041V419.272" stroke="#ECE8E5" stroke-miterlimit="10"/>
<path d="M572.667 543.041L498.735 419.272" stroke="#ECE8E5" stroke-miterlimit="10"/>
<path d="M763.215 543.041L615.374 419.272" stroke="#ECE8E5" stroke-miterlimit="10"/>
<path d="M99.5797 434.777H664.636" stroke="#ECE8E5" stroke-miterlimit="10"/>
<path d="M99.5797 498.153H664.636" stroke="#ECE8E5" stroke-miterlimit="10"/>
<path d="M664.636 540.883H99.5797V565.056H664.636V540.883Z" fill="#F9F8F6"/>
<path d="M414.508 475.732C392.335 474.896 396.144 485.496 388.165 487.169C380.186 488.841 378.107 493.452 403.331 494.367C428.555 495.272 433.799 488.513 447.869 487.96C461.927 487.406 454.062 478.196 441.201 478.512C428.341 478.828 427.38 476.207 414.508 475.732Z" fill="#223E44"/>
<path d="M442.015 493.215H459.317C459.317 493.215 457.373 489.61 453.169 491.407C448.965 493.215 445.089 484.852 442.015 493.215Z" fill="#223E44"/>
<path d="M433.403 475.246H446.524C446.524 475.246 447.236 469.392 442.015 473.268C436.794 477.145 438.342 469.618 433.403 475.246Z" fill="#223E44"/>
<path d="M438.862 481.394C438.839 481.326 438.794 481.258 438.738 481.202C438.681 481.145 438.625 481.1 438.545 481.077C438.478 481.043 438.41 481.032 438.331 481.032C438.285 481.043 438.24 481.043 438.184 481.055C438.082 481.077 438.003 481.134 437.924 481.202C437.89 481.247 437.867 481.281 437.833 481.326C437.788 481.416 437.766 481.507 437.754 481.608V481.699C437.754 481.778 437.766 481.846 437.8 481.914C437.822 481.981 437.867 482.049 437.924 482.106C437.98 482.162 438.037 482.207 438.116 482.23C438.184 482.264 438.252 482.275 438.331 482.275C438.376 482.264 438.421 482.264 438.478 482.253C438.579 482.23 438.658 482.174 438.738 482.106C438.771 482.061 438.794 482.027 438.828 481.981C438.873 481.891 438.896 481.801 438.907 481.699V481.608C438.907 481.529 438.896 481.45 438.862 481.394Z" fill="#DA755D"/>
<path d="M401.331 486.954C400.608 486.954 400.608 488.084 401.331 488.084C402.054 488.084 402.054 486.954 401.331 486.954Z" fill="#DA755D"/>
<path d="M418.542 490.378C417.819 490.378 417.819 491.508 418.542 491.508C419.266 491.508 419.266 490.378 418.542 490.378Z" fill="#DA755D"/>
<path d="M433.528 483.53C432.804 483.53 432.804 484.66 433.528 484.66C434.251 484.66 434.262 483.53 433.528 483.53Z" fill="#DA755D"/>
<path d="M450.084 484.694C450.061 484.592 450.005 484.513 449.937 484.434C449.892 484.4 449.858 484.377 449.813 484.343C449.722 484.298 449.632 484.276 449.53 484.264H449.349C449.27 484.264 449.202 484.276 449.135 484.309C449.067 484.332 448.999 484.377 448.942 484.434C448.886 484.49 448.841 484.547 448.818 484.626C448.784 484.694 448.773 484.761 448.773 484.841C448.784 484.886 448.784 484.931 448.796 484.988C448.818 485.089 448.875 485.168 448.942 485.247C448.988 485.281 449.022 485.304 449.067 485.338C449.157 485.383 449.248 485.406 449.349 485.417H449.53C449.609 485.417 449.677 485.406 449.745 485.372C449.813 485.349 449.88 485.304 449.937 485.247C449.993 485.191 450.039 485.134 450.061 485.055C450.095 484.988 450.106 484.92 450.106 484.841C450.095 484.795 450.084 484.739 450.084 484.694Z" fill="#DA755D"/>
<path d="M406.88 491.587C406.156 491.587 406.156 492.717 406.88 492.717C407.614 492.717 407.614 491.587 406.88 491.587Z" fill="#DA755D"/>
<path d="M390.041 489.271C389.318 489.271 389.318 490.401 390.041 490.401C390.776 490.401 390.776 489.271 390.041 489.271Z" fill="#DA755D"/>
<path d="M444.908 490.932C444.185 490.932 444.185 492.062 444.908 492.062C445.631 492.062 445.643 490.932 444.908 490.932Z" fill="#DA755D"/>
<path d="M444.535 473.076C443.812 473.076 443.812 474.206 444.535 474.206C445.27 474.206 445.27 473.076 444.535 473.076Z" fill="#DA755D"/>
<path d="M382.108 8.28372C286.704 8.28372 209.359 85.8998 209.359 181.654V354.957H382.108H554.857V181.654C554.857 85.9111 477.512 8.28372 382.108 8.28372Z" fill="#EFECE7"/>
<path d="M217.53 354.957H382.108V25.8683C291.213 25.8683 217.53 99.5516 217.53 190.446V354.957Z" fill="white" stroke="#ECE8E5" stroke-miterlimit="10"/>
<path d="M382.108 354.957H546.686V190.446C546.686 99.5516 473.003 25.8683 382.108 25.8683V354.957Z" fill="white" stroke="#ECE8E5" stroke-miterlimit="10"/>
<path d="M361.02 128.087H382.108H514.692" stroke="#ECE8E5" stroke-miterlimit="10"/>
<path d="M229.757 128.087H355.595" stroke="#ECE8E5" stroke-miterlimit="10"/>
<path d="M401.218 250.794H546.686" stroke="#ECE8E5" stroke-miterlimit="10"/>
<path d="M242.641 250.794H382.108H395.771" stroke="#ECE8E5" stroke-miterlimit="10"/>
<path d="M594.105 353.702H170.11V369.275H594.105V353.702Z" fill="#F9F8F6" stroke="#ECE8E5" stroke-miterlimit="10"/>
<path d="M534.718 339.723C527.598 276.719 524.931 236.51 496.916 232.543C496.916 232.543 526.208 241.923 532.921 339.474L534.718 339.723Z" fill="#719D61"/>
<path d="M530.118 342.096C531.938 232.588 482.405 251.224 482.405 251.224C482.405 251.224 531.96 246.297 529.022 342.096H530.118Z" fill="#719D61"/>
<path d="M528.152 317.765C540.82 208.98 489.672 222.609 489.672 222.609C489.672 222.609 539.476 222.621 527.056 317.652L528.152 317.765Z" fill="#719D61"/>
<path d="M534.548 316.736C528.694 253.608 523.123 213.693 549.737 204.11C549.737 204.11 522.965 219.253 536.255 316.137L534.548 316.736Z" fill="#719D61"/>
<path d="M534.876 310.317C523.417 201.397 574.396 215.591 574.396 215.591C574.396 215.591 524.592 215.049 535.961 310.216L534.876 310.317Z" fill="#719D61"/>
<path d="M535.339 339.621C523.066 230.791 574.159 244.601 574.159 244.601C574.159 244.601 524.355 244.432 536.436 339.508L535.339 339.621Z" fill="#719D61"/>
<path d="M530.175 338.412C535.78 229.028 583.934 250.975 583.934 250.975C583.934 250.975 534.82 242.703 531.271 338.48L530.175 338.412Z" fill="#719D61"/>
<path d="M528.514 316.725C534.966 207.387 582.962 229.718 582.962 229.718C582.962 229.718 533.915 221.061 529.61 316.816L528.514 316.725Z" fill="#719D61"/>
<path d="M539.713 298.994H521.993V349.691C521.993 352.425 524.208 354.64 526.943 354.64H534.752C537.487 354.64 539.702 352.425 539.702 349.691V298.994H539.713Z" fill="#ECE8E5"/>
<path d="M521.993 306.701H539.713" stroke="#322532" stroke-width="0.5" stroke-miterlimit="10"/>
<path d="M246.765 263.712C246.652 260.163 245.85 256.535 244.437 253.145C226.039 259.621 231.43 252.015 242.561 249.438C239.567 244.409 235.023 240.33 229.079 238.442C221.88 236.16 213.348 241.358 207.844 249.031C216.501 252.637 214.659 264.107 205.686 252.433C203.889 255.665 202.657 259.146 202.239 262.615C201.188 271.159 205.109 279.545 217.801 283.274C238.256 289.32 247.217 277.081 246.765 263.712ZM233.905 259.349C239.307 259.508 231.746 265.576 227.7 262.638C225.169 260.796 228.503 259.191 233.905 259.349Z" fill="#223E44"/>
<path d="M212.862 350.979C211.969 281.816 229.079 238.454 229.079 238.454" stroke="#9BC190" stroke-width="0.5" stroke-miterlimit="10"/>
<path d="M210.873 270.899C208.048 282.867 204.895 276.199 208.308 268.334C202.759 263.565 194.622 261.078 185.592 263.734C178.303 265.881 174.845 271.057 174.28 276.889C185.943 276.335 188.791 283.816 174.224 279.669C174.913 292.71 188.644 307.119 205.754 298.248C218.309 291.727 217.959 279.217 210.873 270.899ZM193.955 286.868C187.762 288.529 187.457 283.963 192.87 283.319C196.724 282.867 200.148 285.195 193.955 286.868Z" fill="#719D61"/>
<path d="M207.528 329.021C210.364 285.591 185.592 263.723 185.592 263.723" stroke="#9BC190" stroke-width="0.5" stroke-miterlimit="10"/>
<path d="M253.456 294.439C259.468 286.574 259.615 273.702 254.993 269.859C250.619 266.22 245.036 265.78 239.657 267.271C241.024 275.453 234.357 279.047 235.95 268.628C223.417 274.244 214.049 289.467 227.994 296.993C238.617 302.712 246.212 301.299 251.15 296.948C233.159 295.807 242.358 290.925 253.456 294.439ZM248.743 281.217C253.987 282.765 253.252 284.404 247.443 284.856C241.646 285.285 241.974 279.239 248.743 281.217Z" fill="#719D61"/>
<path d="M222.852 328.637C221.123 285.602 254.981 269.859 254.981 269.859" stroke="#9BC190" stroke-width="0.5" stroke-miterlimit="10"/>
<path d="M243.364 322.918H187.175L194.984 345.08C197.007 350.821 202.431 354.652 208.511 354.652H222.016C228.096 354.652 233.52 350.809 235.543 345.08L243.364 322.918Z" fill="#ECE8E5"/>
<path d="M200.476 329.021H241.341" stroke="#322532" stroke-width="0.5" stroke-miterlimit="10"/>
<path d="M189.333 329.021H196.351" stroke="#322532" stroke-width="0.5" stroke-miterlimit="10"/>
<path d="M385.227 341.339C379.011 325.28 369.699 311.346 376.129 304.339C382.56 297.321 398.539 308.408 389.996 340.593L385.227 341.339Z" fill="#719D61"/>
<path d="M389.126 324.579C395.047 324.738 395.07 313.99 400.687 314.793C406.303 315.595 407.445 331.62 390.38 328.49L389.126 324.579Z" fill="#719D61"/>
<path d="M381.452 320.115C370.083 319.652 370.287 309.617 365.461 312.126C356.386 316.861 369.01 331.823 381.452 323.483V320.115Z" fill="#719D61"/>
<path d="M377.135 309.052L377.497 311.719" stroke="#9BC190" stroke-width="0.5" stroke-miterlimit="10"/>
<path d="M380.559 310.928L380.921 311.9" stroke="#9BC190" stroke-width="0.5" stroke-miterlimit="10"/>
<path d="M384.809 307.097L385.758 309.052" stroke="#9BC190" stroke-width="0.5" stroke-miterlimit="10"/>
<path d="M385.283 312.939L386.345 314.759" stroke="#9BC190" stroke-width="0.5" stroke-miterlimit="10"/>
<path d="M381.972 317.245L382.684 318.85" stroke="#9BC190" stroke-width="0.5" stroke-miterlimit="10"/>
<path d="M378.909 316.59V318.047" stroke="#9BC190" stroke-width="0.5" stroke-miterlimit="10"/>
<path d="M385.283 324.783V327.247" stroke="#9BC190" stroke-width="0.5" stroke-miterlimit="10"/>
<path d="M387.408 320.228L387.758 322.376" stroke="#9BC190" stroke-width="0.5" stroke-miterlimit="10"/>
<path d="M390.007 317.245L391.058 318.85" stroke="#9BC190" stroke-width="0.5" stroke-miterlimit="10"/>
<path d="M381.452 323.495L382.334 325.325" stroke="#9BC190" stroke-width="0.5" stroke-miterlimit="10"/>
<path d="M388.583 330.377L389.126 332.287" stroke="#9BC190" stroke-width="0.5" stroke-miterlimit="10"/>
<path d="M390.527 325.201L391.182 327.02" stroke="#9BC190" stroke-width="0.5" stroke-miterlimit="10"/>
<path d="M385.283 332.287L385.814 334.649" stroke="#9BC190" stroke-width="0.5" stroke-miterlimit="10"/>
<path d="M401.093 317.245L402.156 318.85" stroke="#9BC190" stroke-width="0.5" stroke-miterlimit="10"/>
<path d="M398.856 317.607L398.257 320.228" stroke="#9BC190" stroke-width="0.5" stroke-miterlimit="10"/>
<path d="M400.98 320.228L400.619 322.613" stroke="#9BC190" stroke-width="0.5" stroke-miterlimit="10"/>
<path d="M396.257 323.551L397.432 321.415" stroke="#9BC190" stroke-width="0.5" stroke-miterlimit="10"/>
<path d="M398.562 326.015V324.41" stroke="#9BC190" stroke-width="0.5" stroke-miterlimit="10"/>
<path d="M367.823 315.674L368.998 318.047" stroke="#9BC190" stroke-width="0.5" stroke-miterlimit="10"/>
<path d="M365.574 318.047L366.874 320.228" stroke="#9BC190" stroke-width="0.5" stroke-miterlimit="10"/>
<path d="M371.925 321.822L372.897 323.314" stroke="#9BC190" stroke-width="0.5" stroke-miterlimit="10"/>
<path d="M373.01 320.228L374.897 321.178" stroke="#9BC190" stroke-width="0.5" stroke-miterlimit="10"/>
<path d="M377.847 323.088L378.909 323.201" stroke="#9BC190" stroke-width="0.5" stroke-miterlimit="10"/>
<path d="M376.819 304.644C372.004 302.881 372.92 296.7 377.892 301.073C376.581 296.654 381.497 295.524 381.87 300.452C384.537 297.434 388.007 299.581 385.317 302.621C382.367 305.955 377.791 305.006 376.819 304.644Z" fill="#DA755D"/>
<path d="M399.794 316.081C395.081 317.369 395.432 311.289 398.551 313.843C399.873 309.289 404.958 314.68 399.794 316.081Z" fill="#DA755D"/>
<path d="M408.111 336.378H367.167L368.919 346.741C369.722 351.465 371.903 354.64 374.355 354.64H400.562C402.89 354.64 404.992 351.781 405.874 347.396L408.111 336.378Z" fill="#ECE8E5"/>
<path d="M367.71 339.61H400.155" stroke="#322532" stroke-width="0.5" stroke-miterlimit="10"/>
<path d="M407.456 339.61H402.065" stroke="#322532" stroke-width="0.5" stroke-miterlimit="10"/>
<path d="M500.724 319.019L483.863 323.619L499.537 323.122C499.142 324.286 498.645 325.438 498.091 326.557C496.17 330.501 493.344 334.242 489.457 337.745C485.637 341.192 480.766 344.379 474.698 347.306L466.922 346.402C465.476 344.322 464.402 341.961 463.679 339.395C463.521 338.864 463.385 338.31 463.25 337.757C463.238 337.677 463.216 337.598 463.193 337.519C463.069 336.92 462.944 336.31 462.854 335.688C462.413 332.818 462.323 329.767 462.56 326.568C462.617 325.936 462.662 325.291 462.741 324.647C462.865 323.449 463.046 322.218 463.283 320.997C463.317 320.737 463.374 320.477 463.43 320.217C464.075 316.872 465.046 313.459 466.267 310.057C467.499 306.656 468.979 303.288 470.708 299.988C470.867 299.694 471.013 299.389 471.183 299.095C473.375 295.004 475.952 291.038 478.811 287.354C478.902 287.207 479.015 287.082 479.116 286.935C479.715 286.178 480.314 285.432 480.936 284.698L486.134 293.648L482.168 283.274C485.049 280.019 488.18 277.081 491.502 274.549C494.237 280.629 496.723 286.698 498.532 292.676L484.439 299.649L499.345 295.513C499.775 297.118 500.148 298.711 500.453 300.305L490.203 303.853L500.894 302.746C501.165 304.396 501.346 306.034 501.459 307.662L482.778 313.256L480.416 313.968L482.755 313.55L501.572 310.261C501.628 313.233 501.357 316.16 500.724 319.019Z" fill="#719D61"/>
<path d="M472.381 338.186L468.154 338.751L463.679 339.361C463.329 338.175 463.057 336.932 462.865 335.655C460.628 321.167 453.327 305.458 479.139 286.913C484.484 305.187 485.818 321.709 472.381 338.186Z" fill="#223E44"/>
<path d="M479.433 304.746L472.709 306.746H479.252C478.981 309.459 478.529 312.103 477.862 314.68L460.198 321.438L476.506 318.997C473.997 325.71 469.748 331.959 462.933 337.734L458.684 337.531L455.463 337.372L451.971 337.191C442.343 316.996 441.868 300.18 458.842 282.325C459.215 281.929 459.599 281.522 460.006 281.127L467.883 295.603L461.939 279.228C462.718 278.493 463.51 277.759 464.357 277.036L467.883 283.014L466.312 275.34C469.217 272.888 472.471 270.413 476.076 267.882C476.709 272.029 477.342 276.086 477.896 280.03L474.178 282.325L478.156 281.884C478.823 286.834 479.331 291.603 479.512 296.225L466.346 300.723L479.58 298.406C479.602 300.565 479.557 302.667 479.433 304.746Z" fill="#719D61"/>
<path d="M465.103 317.855C463.351 324.704 459.791 330.897 455.452 337.361L451.96 337.18C440.817 317.155 441.857 300.169 458.831 282.313C466.47 297.152 467.612 308.159 465.103 317.855Z" fill="#223E44"/>
<path d="M445.1 317.155L445.586 316.996L447.157 316.477L460.503 312.137C460.967 309.798 461.215 307.345 461.215 304.712L450.999 305.673L461.159 302.621C461.102 301.152 460.967 299.627 460.763 298.056L446.987 304.283C447.462 303.921 455.316 298.237 460.21 294.677C459.577 291.365 458.616 287.817 457.317 283.975C456.232 280.788 454.898 277.397 453.316 273.781C450.988 276.233 448.875 278.697 446.953 281.217L448.931 292.744L444.637 284.381C443.902 285.41 443.201 286.461 442.557 287.523L446.761 293.4L441.529 289.207C441.472 289.297 441.427 289.376 441.371 289.467C440.659 290.699 440.003 291.931 439.382 293.174C438.862 294.202 438.387 295.23 437.946 296.27C437.732 296.779 437.517 297.276 437.325 297.784C437.054 298.474 436.805 299.152 436.568 299.841C436.093 301.209 435.664 302.576 435.302 303.978C435.121 304.667 434.952 305.356 434.793 306.057C434.409 307.797 434.127 309.56 433.923 311.312C433.867 311.674 433.844 312.035 433.822 312.397C433.697 313.832 433.629 315.279 433.629 316.736C433.629 317.358 433.641 317.98 433.663 318.601C433.686 319.245 433.731 319.901 433.776 320.556C433.81 321.042 433.855 321.551 433.901 322.059C433.912 322.218 433.923 322.364 433.957 322.523C434.048 323.336 434.149 324.15 434.285 324.964C434.375 325.506 434.466 326.037 434.567 326.58C434.647 326.964 434.726 327.371 434.816 327.755C435.008 328.637 435.212 329.529 435.449 330.399C435.551 330.829 435.686 331.247 435.799 331.677C435.867 331.925 435.946 332.163 436.014 332.411C436.116 332.784 436.229 333.157 436.364 333.53C436.737 334.717 437.167 335.914 437.641 337.135V337.146C437.72 337.35 437.799 337.542 437.89 337.757C437.98 337.994 438.071 338.231 438.172 338.469L440.726 339.034H440.738L443.902 339.746C444.524 339.079 445.134 338.412 445.722 337.757L446.151 337.293C446.253 337.18 446.366 337.045 446.479 336.932C447.055 336.287 447.631 335.643 448.185 334.999C448.739 334.355 449.281 333.711 449.813 333.067C449.869 333.01 449.903 332.976 449.926 332.92C449.948 332.897 449.982 332.852 450.005 332.829C450.061 332.773 450.095 332.728 450.118 332.671C450.389 332.343 450.649 332.027 450.909 331.699C451.248 331.258 451.598 330.818 451.915 330.377C452.853 329.122 453.745 327.857 454.57 326.568C455 325.913 455.407 325.235 455.802 324.568C456.74 322.952 457.588 321.291 458.3 319.562C458.831 318.273 459.306 316.951 459.69 315.584L447.428 317.234L445.642 317.482L445.202 317.539L444.964 317.573H444.953L443.134 317.821L444.919 317.245L445.1 317.155Z" fill="#719D61"/>
<path d="M451.926 330.354C451.598 330.795 451.259 331.236 450.92 331.677C450.66 332.004 450.4 332.321 450.129 332.648C450.106 332.705 450.061 332.75 450.016 332.807C449.993 332.829 449.959 332.874 449.937 332.897C449.914 332.954 449.869 332.987 449.824 333.044C449.293 333.688 448.75 334.332 448.197 334.976C447.643 335.621 447.078 336.265 446.49 336.909C446.388 337.022 446.275 337.158 446.162 337.271L445.733 337.734C445.134 338.389 444.535 339.056 443.913 339.723L440.749 339.011H440.738L438.184 338.446C438.082 338.209 437.992 337.971 437.901 337.734C437.811 337.531 437.732 337.338 437.653 337.124V337.112C437.178 335.903 436.748 334.694 436.376 333.507C436.251 333.134 436.127 332.761 436.025 332.389C435.946 332.14 435.867 331.903 435.81 331.654C435.697 331.225 435.562 330.806 435.46 330.377C435.223 329.495 435.019 328.603 434.827 327.732C434.737 327.348 434.658 326.941 434.579 326.557C434.477 326.015 434.387 325.484 434.296 324.941C434.172 324.127 434.059 323.314 433.968 322.5C433.946 322.342 433.935 322.195 433.912 322.037C433.855 321.528 433.822 321.031 433.788 320.534C433.731 319.889 433.697 319.234 433.675 318.579C433.652 317.957 433.641 317.335 433.641 316.714C433.641 315.256 433.708 313.809 433.833 312.374C433.855 312.013 433.889 311.651 433.934 311.289C434.127 309.538 434.409 307.775 434.805 306.034C434.963 305.334 435.132 304.644 435.313 303.955C435.675 302.576 436.093 301.186 436.579 299.819C436.828 299.129 437.065 298.451 437.336 297.762C437.528 297.253 437.732 296.756 437.958 296.248C440.467 300.757 442.738 305.582 444.738 310.397C444.761 310.453 444.795 310.498 444.817 310.555C444.976 310.939 445.145 311.346 445.292 311.73C445.948 313.324 446.569 314.906 447.168 316.465L445.597 316.985L445.111 317.143L444.942 317.2L443.156 317.776L444.976 317.528H444.987L445.224 317.494L445.665 317.437L447.451 317.189C448.66 320.421 449.767 323.562 450.728 326.523C451.157 327.857 451.553 329.123 451.926 330.354Z" fill="#223E44"/>
<path d="M453.316 273.781L438.975 335.756" stroke="#9BC190" stroke-width="0.5" stroke-miterlimit="10"/>
<path d="M451.666 339.52L447.394 342.469C445.021 341.362 442.806 340.209 440.76 339.011H440.749C440.026 338.593 439.325 338.175 438.647 337.734C438.308 337.531 437.992 337.316 437.664 337.124V337.112C432.578 333.801 428.6 330.241 425.538 326.546C424.091 324.828 422.859 323.088 421.808 321.313L433.799 320.522L420.271 318.477C419.209 316.33 418.395 314.194 417.797 312.058L432.533 315.606L416.983 308.656C416.135 304.158 416.135 299.773 416.61 295.728L428.194 299.864L417.164 292.224C417.593 289.964 418.158 287.862 418.791 285.941L429.03 290.755L419.356 284.302C420.769 280.449 422.34 277.522 423.413 275.917C428.77 281.522 433.437 289.433 437.347 297.762C437.98 299.118 438.602 300.474 439.19 301.842L436.398 310.204L440.399 304.689C441.721 307.842 442.919 310.995 444.004 314.013C444.298 314.827 444.569 315.629 444.851 316.42C444.93 316.669 445.021 316.895 445.1 317.143C445.134 317.256 445.179 317.381 445.213 317.494C445.496 318.307 445.767 319.11 446.027 319.901C446.806 322.251 447.496 324.489 448.117 326.535C448.728 328.557 449.27 330.422 449.722 332.061C449.801 332.343 449.869 332.615 449.937 332.874C450.016 333.168 450.095 333.451 450.174 333.722C450.174 333.733 450.186 333.745 450.186 333.756C450.626 335.395 450.977 336.728 451.214 337.711C451.485 338.774 451.643 339.406 451.666 339.52Z" fill="#719D61"/>
<path d="M498.091 326.546C496.17 330.49 493.344 334.231 489.457 337.734H437.913C437.822 337.531 437.743 337.338 437.664 337.124V337.112C432.578 333.801 428.6 330.241 425.538 326.546H498.091Z" fill="#223E44"/>
<path d="M491.525 274.527L473.285 339.361" stroke="#9BC190" stroke-width="0.5" stroke-miterlimit="10"/>
<path d="M476.065 267.87L455.463 337.361" stroke="#9BC190" stroke-width="0.5" stroke-miterlimit="10"/>
<path d="M423.402 275.917L447.428 339.361" stroke="#9BC190" stroke-width="0.5" stroke-miterlimit="10"/>
<path d="M501.594 329.981H417.65V338.841C417.65 346.108 423.549 352.007 430.815 352.007H488.428C495.695 352.007 501.594 346.108 501.594 338.841V329.981Z" fill="#ECE8E5"/>
<path d="M488.282 334.683H501.594" stroke="#322532" stroke-width="0.5" stroke-miterlimit="10"/>
<path d="M418.068 334.683H484.224" stroke="#322532" stroke-width="0.5" stroke-miterlimit="10"/>
<path d="M505.222 347.283H412.655V354.64H505.222V347.283Z" fill="#ECE8E5"/>
<path d="M433.968 347.283H499.526" stroke="#322532" stroke-width="0.5" stroke-miterlimit="10"/>
<path d="M419.763 347.283H429.923" stroke="#322532" stroke-width="0.5" stroke-miterlimit="10"/>
<path d="M221.259 435.952L246.494 436.291L246.042 459.424L210.568 457.571L221.259 435.952Z" fill="#EFD3C2"/>
<path d="M234.153 481.823C234.119 482.626 234.029 483.134 234.029 483.134C207.935 489.372 201.764 478.455 201.764 478.455C198.837 453.062 205.573 435.5 205.573 435.5L209.302 435.613L221.247 435.963C216.829 451.039 226.921 458.43 226.921 458.43L226.299 471.381C233.52 473.223 234.21 479.179 234.153 481.823Z" fill="#DA755D"/>
<path d="M234.153 481.823C234.119 482.626 234.029 483.134 234.029 483.134C207.935 489.372 201.764 478.455 201.764 478.455C198.837 453.062 205.573 435.5 205.573 435.5L209.302 435.613C207.019 442.846 202.521 459.989 204.816 477.246C204.816 477.235 212.579 484.66 234.153 481.823Z" fill="#223E44"/>
<path d="M320.663 478.648C320.663 478.648 273.877 474.523 229.305 465.538L229.565 434.698L258.281 435.511L279.821 436.121L320.663 478.648Z" fill="#6186A2"/>
<path d="M244.03 394.872C244.03 394.872 306.006 418.345 320.663 478.207C320.663 478.207 281.403 462.227 231.95 444.812L244.03 394.872Z" fill="#6186A2"/>
<path d="M381.893 460.396L393.104 460.057L390.956 454.09H381.542L381.893 460.396Z" fill="#E2AF96"/>
<path d="M381.814 437.692L404.992 466.94L402.111 469.675L374.016 445.569L374.208 439.195L381.814 437.692Z" fill="#223E44"/>
<path d="M419.062 487.847L384.571 467.188L406.597 454.927C406.597 454.927 427.922 472.545 430.454 482.128C431.584 486.389 428.973 489.056 419.062 487.847Z" fill="#6186A2"/>
<path d="M393.454 462.238L393.827 471.528L398.46 468.737L398.878 459.221L393.454 462.238Z" fill="#223E44"/>
<path d="M430.454 482.117L405.444 466.397L406.597 454.927C406.597 454.915 427.911 472.534 430.454 482.117Z" fill="#7A9EBC"/>
<path d="M384.56 467.177L419.062 487.847C419.062 487.847 402.495 486.479 383.712 479.303L384.56 467.177Z" fill="#7A9EBC"/>
<path d="M323.014 414.491L307.712 431.793C297.541 415.859 286.794 381.3 296.445 348.64C298.174 342.786 303.881 339.067 309.837 340.401C314.719 341.486 318.301 345.656 318.64 350.64L323.014 414.491Z" fill="#E2AF96"/>
<path d="M310.978 404.591L373.225 450.926L375.044 456.983C375.044 456.983 340.712 451.615 307.701 431.793L310.978 404.591Z" fill="#E2AF96"/>
<path d="M366.41 453.401C374.954 460.159 381.893 460.396 381.893 460.396L386.809 441.297L367.269 446.722L366.41 453.401Z" fill="#E2AF96"/>
<path d="M385.317 443.738L396.799 445.569L398.46 450.101L395.793 452.259L394.188 449.446L380.831 451.141L385.317 443.738Z" fill="#E2AF96"/>
<path d="M378.672 456.124L393.714 452.813L396.053 455.593L397.748 454.09L396.087 445.569L379.791 447.524L378.672 456.124Z" fill="#E2AF96"/>
<path d="M386.809 441.297L393.872 442.45L395.16 447.129L385.091 445.569L386.809 441.297Z" fill="#E2AF96"/>
<path d="M291.19 329.405C310.718 327.913 341.57 310.837 350.125 277.239C350.125 277.239 350.125 277.239 350.114 277.25C297.835 300.067 291.19 329.405 291.19 329.405Z" fill="black"/>
<path d="M291.19 329.405C310.718 327.913 341.57 310.837 350.125 277.239C350.125 277.239 350.125 277.239 350.114 277.25C349.798 277.928 328.868 321.257 291.19 329.405Z" fill="#C07000"/>
<path d="M338.361 282.957L321.929 280.336C308.786 278.403 297.586 288.619 298.434 301.875C298.931 309.741 307.961 322.444 315.544 323.201L338.361 282.957Z" fill="#223E44"/>
<path d="M337.909 320.195L332.744 326.636L325.195 336.073L314.03 351.838L306.006 323.065L326.563 298.722L337.909 320.195Z" fill="#EFD3C2"/>
<path d="M332.744 326.636L325.986 335.078C325.986 335.078 318.968 327.958 319.273 317.155L332.744 326.636Z" fill="#E2AF96"/>
<path d="M317.375 291.704L317.601 299.683L317.702 303.322L317.985 313.086C318.132 318.364 321.002 323.178 325.568 325.823L332.665 329.936C338.813 333.496 346.645 330.422 348.803 323.653C350.385 318.68 351.708 312.77 351.176 306.046C350.555 298.248 345.978 291.23 339.514 287.399L339.491 287.387L338.35 286.755L338.225 286.687C337.649 286.393 337.05 286.122 336.451 285.873C335.016 285.274 333.501 284.822 331.942 284.517L326.969 283.556C321.895 282.596 317.239 286.551 317.375 291.704Z" fill="#EFD3C2"/>
<path d="M343.107 320.522C337.525 325.28 335.31 322.862 336.666 317.019L343.107 320.522Z" fill="white"/>
<path d="M351.278 308.374C351.527 312.883 353.934 314.646 355.799 315.335C356.996 315.776 357.652 317.053 357.324 318.296C356.895 319.923 355.539 321.144 353.877 321.415L347.989 322.353C344.893 322.297 342.52 319.596 342.859 316.522L344.023 306.102L351.278 308.374Z" fill="#EFD3C2"/>
<path d="M316.086 291.332L315.171 308.577C320.55 307.413 335.264 296.485 337.525 284.777C335.92 284.11 334.213 283.59 332.45 283.251L326.868 282.178C321.172 281.081 315.928 285.534 316.086 291.332Z" fill="#223E44"/>
<path d="M323.07 303.582C326.63 304.079 330.179 303.198 332.982 300.994C337.604 297.355 339.333 290.879 337.626 283.658L335.796 284.088C337.355 290.676 335.909 296.293 331.818 299.514C328.337 302.248 323.511 302.587 319.205 300.406L318.347 302.09C319.884 302.859 321.477 303.356 323.07 303.582Z" fill="#223E44"/>
<path d="M319.703 307.04L316.572 317.471C312.945 316.951 310.097 315.832 307.961 314.408C296.965 307.097 304.152 291.546 317.759 304.972C318.381 305.594 319.036 306.283 319.703 307.04Z" fill="#EFD3C2"/>
<path d="M317.748 304.972C314.809 307.492 311.916 310.204 309.181 313.075C308.763 313.516 308.356 313.956 307.961 314.397C296.965 307.085 304.141 291.535 317.748 304.972Z" fill="#E2AF96"/>
<path d="M350.137 277.25C350.137 277.25 343.921 280.019 335.4 285.172C332.699 286.788 329.772 288.664 326.721 290.755C319.816 295.502 312.334 301.435 305.746 308.362C303.294 310.939 300.965 313.663 298.818 316.522C295.801 320.556 293.19 324.873 291.179 329.416C291.179 329.416 291.473 321.212 296.524 311.346C297.824 308.792 299.451 306.113 301.463 303.446C305.859 297.638 312.707 292.168 321.477 286.924C324.28 285.24 327.907 283.443 331.84 281.85C337.83 279.398 344.52 277.465 350.137 277.25Z" fill="#FFBC3A"/>
<path d="M298.615 309.368C300.875 307.289 303.429 305.051 306.221 302.78C312.56 297.615 320.155 292.247 328.45 287.986C331.535 286.393 334.451 284.743 337.717 283.522L333.761 280.166L333.332 279.804L330.405 277.318C328.1 275.352 325.297 273.996 322.302 273.566C318.075 272.967 313.724 273.6 309.792 275.465L301.768 279.296C298.095 281.036 295.349 284.02 293.835 287.512C291.947 291.908 292.298 296.96 294.456 301.209L296.445 305.13L297.112 306.441L298.615 309.368Z" fill="#FFBC3A"/>
<path d="M344.158 309.176C343.435 311.244 342.09 312.645 341.141 312.318C340.203 311.99 340.022 310.046 340.745 307.989C341.469 305.921 342.814 304.52 343.763 304.848C344.701 305.164 344.87 307.108 344.158 309.176Z" fill="#223E44"/>
<path d="M340.237 296.62C343.774 293.58 345.582 295.31 343.22 298.044C340.689 300.983 335.841 300.395 340.237 296.62Z" fill="#223E44"/>
<path d="M255.32 363.84C255.106 362.777 250.246 337.711 260.756 328.569C265.446 324.489 271.402 324.67 277.708 324.862C283.63 325.043 289.755 325.235 295.937 322.206L296.908 324.195C290.23 327.473 283.551 327.258 277.64 327.077C271.526 326.885 266.249 326.727 262.214 330.241C252.665 338.536 257.445 363.161 257.49 363.41L255.32 363.84Z" fill="#223E44"/>
<path d="M306.006 315.742C306.006 315.742 295.044 326.071 280.307 326.218C280.16 326.218 280.013 326.218 279.866 326.218C265.107 326.376 253.738 339.294 255.388 353.974L256.236 361.5L308.718 319.483L306.006 315.742Z" fill="#223E44"/>
<path d="M320.663 349.385L299.496 383.413L258.519 396.488L228.932 397.2C230.887 393.776 233.012 390.431 235.25 387.165C249.24 366.767 267.989 349.702 283.019 337.881C297.598 326.422 308.718 319.844 308.718 319.844L320.663 349.385Z" fill="#E69771"/>
<path d="M229.181 390.996L317.906 307.323" stroke="#F2C9B5" stroke-width="0.5" stroke-miterlimit="10"/>
<path d="M234.289 396.082L323.014 312.408" stroke="#F2C9B5" stroke-width="0.5" stroke-miterlimit="10"/>
<path d="M239.397 401.156L328.122 317.482" stroke="#F2C9B5" stroke-width="0.5" stroke-miterlimit="10"/>
<path d="M244.505 406.241L333.23 322.568" stroke="#F2C9B5" stroke-width="0.5" stroke-miterlimit="10"/>
<path d="M249.602 411.316L338.338 327.642" stroke="#F2C9B5" stroke-width="0.5" stroke-miterlimit="10"/>
<path d="M298.739 313.99L320.709 356.855" stroke="#F2C9B5" stroke-width="0.5" stroke-miterlimit="10"/>
<path d="M282.025 332.174L312.47 372.146" stroke="#F2C9B5" stroke-width="0.5" stroke-miterlimit="10"/>
<path d="M271.526 339.067L301.971 379.582" stroke="#F2C9B5" stroke-width="0.5" stroke-miterlimit="10"/>
<path d="M260.078 346.571L297.903 385.436" stroke="#F2C9B5" stroke-width="0.5" stroke-miterlimit="10"/>
<path d="M247.703 356.855L290.953 392.002" stroke="#F2C9B5" stroke-width="0.5" stroke-miterlimit="10"/>
<path d="M239.6 365.998L288.862 396.556" stroke="#F2C9B5" stroke-width="0.5" stroke-miterlimit="10"/>
<path d="M230.808 374.429L273.549 401.416" stroke="#F2C9B5" stroke-width="0.5" stroke-miterlimit="10"/>
<path d="M311.035 366.857C321.579 348.662 308.718 328.942 295.01 328.942L287.562 334.4C287.562 334.389 310.108 334.931 311.035 366.857Z" fill="#7A9EBC"/>
<path d="M248.732 390.94L306.006 369.671L310.108 394.872L258.518 396.5L248.732 390.94Z" fill="#7A9EBC"/>
<path d="M237.205 384.396C237.205 384.396 213.348 407.835 216.524 428.866C220.14 452.768 262.847 467.482 262.847 467.482L258.519 396.5L237.205 384.396Z" fill="#7A9EBC"/>
<path d="M203.889 462.939L229.023 465.256L226.762 488.287L191.537 483.654L203.889 462.939Z" fill="#EFD3C2"/>
<path d="M213.156 509.68C213.065 510.472 212.93 510.98 212.93 510.98C186.429 515.162 181.128 503.781 181.128 503.781C180.202 478.241 188.282 461.255 188.282 461.255L192 461.662L203.889 462.939C198.295 477.619 207.788 485.779 207.788 485.779L206.149 498.639C213.201 501.058 213.427 507.036 213.156 509.68Z" fill="#DA755D"/>
<path d="M213.156 509.68C213.065 510.472 212.93 510.98 212.93 510.98C186.429 515.162 181.128 503.781 181.128 503.781C180.202 478.241 188.282 461.255 188.282 461.255L192 461.662C189.164 468.703 183.332 485.428 184.27 502.809C184.27 502.809 191.424 510.822 213.156 509.68Z" fill="#223E44"/>
<path d="M318.369 502.516C318.369 502.516 253.591 505.081 209.664 493.328L211.856 462.566L240.459 465.165L261.92 467.12L296.456 470.262L318.369 502.516Z" fill="#7A9EBC"/>
<path d="M272.046 480.286L231.385 464.34L276.284 468.443L272.046 480.286Z" fill="black"/>
<path d="M253.874 402.455C253.874 402.455 312.255 456.192 318.369 502.516C318.369 502.516 276.295 490.796 225.734 445.445L253.874 402.455Z" fill="#7A9EBC"/>
<path d="M210.93 475.642L280.081 485.055C280.081 485.055 247.681 458.17 234.086 435.952C220.49 413.734 248.732 390.94 248.732 390.94L293.428 374.338" stroke="#A1BBD5" stroke-miterlimit="10"/>
<path d="M330.473 404.591L321.33 425.804C306.695 413.836 285.709 384.351 284.692 350.312C284.511 344.21 288.772 338.898 294.852 338.299C299.824 337.813 304.537 340.65 306.413 345.283L330.473 404.591Z" fill="#EFD3C2"/>
<path d="M304.91 405.868L371.066 377.955L378.141 381.91C378.141 381.91 355.347 408.117 321.082 425.657L304.91 405.868Z" fill="#EFD3C2"/>
<path d="M393.556 411.609C377.87 403.563 375.191 394.386 377.904 388.476C380.819 382.147 390.979 378.158 404.054 383.266L402.246 387.798C392.369 383.944 384.39 386.148 382.39 390.488C380.684 394.183 383.181 400.794 395.827 407.281L393.556 411.609Z" fill="#7A9EBC"/>
<path d="M435.607 391.12L422.882 433.375L381.328 412.694L405.456 376.553L435.607 391.12Z" fill="#7A9EBC"/>
<path d="M405.456 376.553L435.607 391.12C435.607 391.12 415.028 399.901 405.456 376.553Z" fill="#223E44"/>
<path d="M428.25 412.378L464.617 392.273L463.035 390.205L430.646 404.128L428.25 412.378Z" fill="#7A9EBC"/>
<path d="M467.205 382.758C453.994 390.137 461.927 399.675 473.059 396.262L467.205 382.758Z" fill="#7A9EBC"/>
<path d="M467.205 382.758L473.059 396.262C473.059 396.262 462.639 393.064 467.205 382.758Z" fill="#223E44"/>
<path d="M371.066 377.955L387.623 376.282L392.776 378.949L392.934 380.949L389.08 381.221L381.045 387.685L371.066 377.955Z" fill="#EFD3C2"/>
<path d="M363.743 384.306C370.874 394.612 378.469 397.223 378.469 397.223L388.696 380.848L371.066 377.955L363.743 384.306Z" fill="#EFD3C2"/>
<path d="M388.696 380.848L395.771 387.628L393.42 391.03L391.42 390.205L389.013 393.324L386.978 392.307L385.475 394.85L378.83 393.505L388.696 380.848Z" fill="#EFD3C2"/>
<path d="M377.124 396.624L382.356 399.088L384.933 395.279L379.949 391.652L377.124 396.624Z" fill="#EFD3C2"/>
<path d="M382.356 399.088L386.312 399.201L387.137 396.387L384.933 395.279L382.356 399.088Z" fill="#EFD3C2"/>
<path d="M385.475 394.85L389.758 395.336L390.64 392.51L386.3 390.974L385.475 394.85Z" fill="#EFD3C2"/>
<path d="M471.782 385.922C471.725 385.628 471.466 385.391 471.149 385.436C470.369 385.56 469.578 385.673 468.798 385.798C468.505 385.843 468.256 386.125 468.313 386.43C468.369 386.724 468.629 386.962 468.945 386.916C469.725 386.792 470.516 386.679 471.296 386.555C471.579 386.51 471.827 386.227 471.782 385.922Z" fill="#7A9EBC"/>
<path d="M475.579 389.764C474.652 389.753 473.714 389.742 472.788 389.73C472.494 389.73 472.189 389.889 472.155 390.216C472.132 390.488 472.324 390.849 472.641 390.849C473.568 390.861 474.506 390.872 475.432 390.883C475.726 390.883 476.031 390.725 476.065 390.397C476.088 390.115 475.884 389.764 475.579 389.764Z" fill="#7A9EBC"/>
<path d="M478.416 386.668C478.325 386.555 478.19 386.453 478.043 386.453C477.5 386.442 476.947 386.419 476.404 386.408C476.246 386.408 476.11 386.419 475.986 386.521C475.873 386.6 475.783 386.758 475.771 386.894C475.76 387.041 475.783 387.199 475.884 387.312C475.975 387.425 476.11 387.527 476.257 387.527C476.8 387.538 477.353 387.561 477.896 387.572C478.054 387.572 478.19 387.561 478.314 387.459C478.427 387.368 478.517 387.222 478.529 387.086C478.54 386.939 478.517 386.781 478.416 386.668Z" fill="#7A9EBC"/>
<path d="M472.663 393.132L471.047 392.929C470.754 392.895 470.437 393.109 470.415 393.415C470.392 393.72 470.595 394.002 470.9 394.047L472.517 394.251C472.81 394.285 473.127 394.07 473.149 393.765C473.183 393.46 472.98 393.166 472.663 393.132Z" fill="#7A9EBC"/>
<path d="M472.878 400.376C472.449 399.721 472.019 399.054 471.601 398.398C471.443 398.15 471.036 398.105 470.81 398.297C470.561 398.5 470.528 398.828 470.708 399.088C471.138 399.743 471.567 400.41 471.985 401.065C472.144 401.314 472.55 401.359 472.777 401.167C473.014 400.964 473.048 400.647 472.878 400.376Z" fill="#7A9EBC"/>
<path d="M476.958 397.573C476.608 397.325 476.269 397.076 475.918 396.839C475.862 396.782 475.794 396.748 475.726 396.737C475.658 396.714 475.59 396.703 475.511 396.703C475.376 396.714 475.218 396.794 475.127 396.895C475.037 397.008 474.98 397.155 474.991 397.302C475.014 397.438 475.071 397.607 475.184 397.686C475.534 397.935 475.873 398.184 476.223 398.421C476.28 398.477 476.348 398.511 476.415 398.523C476.483 398.545 476.551 398.557 476.63 398.557C476.766 398.545 476.924 398.466 477.014 398.364C477.105 398.251 477.161 398.105 477.15 397.958C477.127 397.811 477.071 397.652 476.958 397.573Z" fill="#7A9EBC"/>
<path d="M481.67 391.041C481.659 390.996 481.648 390.951 481.637 390.894C481.591 390.804 481.535 390.725 481.456 390.657C481.117 390.341 480.766 390.024 480.427 389.696C480.326 389.606 480.145 389.572 480.02 389.583C479.885 389.606 479.727 389.685 479.636 389.809C479.557 389.934 479.501 390.081 479.523 390.216C479.535 390.262 479.546 390.307 479.557 390.363C479.602 390.454 479.659 390.533 479.738 390.601C480.077 390.917 480.427 391.233 480.766 391.561C480.868 391.652 481.049 391.685 481.173 391.674C481.309 391.652 481.467 391.572 481.557 391.448C481.648 391.335 481.704 391.188 481.67 391.041Z" fill="#7A9EBC"/>
<path d="M478.28 403.473C478.088 402.84 477.896 402.218 477.692 401.585C477.647 401.45 477.5 401.325 477.376 401.28C477.252 401.235 477.071 401.224 476.947 401.28C476.811 401.348 476.687 401.45 476.641 401.597C476.585 401.743 476.596 401.879 476.641 402.026C476.834 402.659 477.026 403.28 477.229 403.913C477.274 404.049 477.421 404.173 477.546 404.218C477.67 404.264 477.851 404.275 477.975 404.218C478.111 404.151 478.235 404.049 478.28 403.902C478.337 403.755 478.325 403.619 478.28 403.473Z" fill="#7A9EBC"/>
<path d="M475.421 381.921C475.364 381.616 475.104 381.39 474.788 381.435C473.952 381.548 473.115 381.661 472.279 381.774C471.985 381.808 471.737 382.102 471.793 382.407C471.85 382.712 472.11 382.938 472.426 382.893C473.262 382.78 474.099 382.667 474.935 382.554C475.229 382.52 475.477 382.226 475.421 381.921Z" fill="#7A9EBC"/>
<path d="M481.817 383.176C481.049 383.131 480.292 383.085 479.523 383.051C479.229 383.04 478.913 383.221 478.89 383.537C478.868 383.82 479.06 384.148 479.376 384.17C480.145 384.215 480.902 384.261 481.67 384.295C481.964 384.306 482.281 384.125 482.303 383.809C482.326 383.515 482.134 383.187 481.817 383.176Z" fill="#7A9EBC"/>
<path d="M481.738 396.375C481.105 395.799 480.484 395.234 479.851 394.658C479.749 394.567 479.557 394.533 479.433 394.556C479.297 394.579 479.139 394.669 479.06 394.782C478.981 394.906 478.936 395.053 478.958 395.2C478.992 395.358 479.071 395.46 479.184 395.573C479.817 396.149 480.439 396.714 481.071 397.291C481.173 397.381 481.365 397.415 481.49 397.393C481.625 397.37 481.783 397.28 481.863 397.167C481.942 397.042 481.987 396.895 481.964 396.748C481.93 396.579 481.851 396.477 481.738 396.375Z" fill="#7A9EBC"/>
<path d="M216.908 430.799L224.321 423.249C224.321 423.249 224.321 409.846 232.854 400.805L226.706 397.2" stroke="#A1BBD5" stroke-miterlimit="10"/>
<path d="M239.341 400.805L257.852 396.116L237.205 384.396" stroke="#A1BBD5" stroke-miterlimit="10"/>
<path d="M220.072 463.312L218.863 495.52" stroke="#A1BBD5" stroke-miterlimit="10"/>
<path d="M272.046 456.678L287.562 450.847L274.035 460.023L289.766 456.045L281.968 461.255" stroke="#A1BBD5" stroke-miterlimit="10"/>
<path d="M446.626 108.491C448.344 110.864 449.643 113.565 450.344 116.447C451.044 119.329 451.09 122.323 450.999 125.228C450.92 128.143 450.694 131.036 450.796 133.884C450.898 136.721 451.282 139.558 452.333 142.168C452.525 142.846 452.887 143.456 453.18 144.089C453.486 144.722 453.757 145.378 454.164 145.954L455.294 147.74L456.514 149.559C458.153 152 459.656 154.543 460.876 157.21C463.318 162.555 465.137 168.262 465.114 174.263L464.142 174.229C464.029 171.438 463.431 168.579 462.617 165.855C461.814 163.109 460.752 160.442 459.498 157.877C458.876 156.588 458.187 155.334 457.497 154.079C456.74 152.859 456.04 151.605 455.215 150.44L454.005 148.655L452.807 146.756C452.378 146.146 452.084 145.445 451.756 144.779C451.451 144.089 451.078 143.434 450.886 142.711C449.813 139.897 449.462 136.868 449.406 133.93C449.349 130.969 449.632 128.064 449.824 125.183C450.016 122.312 450.061 119.43 449.508 116.628C448.999 113.825 447.846 111.169 446.332 108.717L446.626 108.491Z" fill="#719D61"/>
<path d="M467.567 167.053C466.73 161.041 465.713 155.085 464.459 149.152C463.216 143.219 461.792 137.309 460.594 131.33L459.735 126.832C459.486 125.329 459.215 123.826 458.989 122.312C458.526 119.295 458.153 116.266 457.927 113.215C457.396 107.135 457.497 101.009 457.916 94.9181L458.887 95.0198C458.04 101.021 457.995 107.123 458.548 113.158C458.854 116.176 459.317 119.17 459.859 122.154C460.142 123.646 460.492 125.126 460.809 126.606L461.871 131.036C463.363 136.924 464.956 142.801 466.188 148.791C467.42 154.769 468.324 160.849 468.55 166.963L467.567 167.053Z" fill="#719D61"/>
<path d="M463.148 141.422C462.877 137.41 464.109 133.432 465.826 129.884C467.555 126.301 469.816 123.08 472.065 119.894C474.313 116.707 476.574 113.542 478.303 110.084C479.998 106.649 481.264 102.851 480.947 98.9978H481.919C481.772 99.9923 481.67 100.976 481.58 101.959L481.015 104.874C480.744 105.824 480.439 106.762 480.156 107.711L479.003 110.435C477.308 114.006 475.082 117.249 472.901 120.481C470.72 123.702 468.55 126.934 466.956 130.426C465.318 133.907 464.493 137.636 464.12 141.445L463.148 141.422Z" fill="#719D61"/>
<path d="M449.541 135.975C448.92 134.178 448.242 132.381 447.225 130.765C446.264 129.115 445.111 127.578 443.789 126.188C442.478 124.787 441.032 123.51 439.483 122.38C437.935 121.261 436.251 120.244 434.545 119.464L434.918 118.56C436.771 119.374 438.466 120.38 440.105 121.521C441.732 122.662 443.247 123.973 444.625 125.409C446.027 126.833 447.247 128.426 448.287 130.132C449.372 131.816 450.129 133.692 450.796 135.58L449.541 135.975Z" fill="#719D61"/>
<path d="M469.318 164.454C469.929 159.922 471.296 155.481 473.206 151.333C475.071 147.163 477.444 143.264 479.761 139.388C482.089 135.523 484.371 131.635 486.123 127.499C487.863 123.374 489.152 119.001 489.4 114.503L490.372 114.605C489.604 119.114 488.553 123.555 486.858 127.793C485.196 132.031 483.061 136.065 480.857 140.021C478.642 143.965 476.393 147.875 474.517 151.932C473.601 153.966 472.765 156.046 472.031 158.148C471.714 159.221 471.364 160.284 471.059 161.357L470.279 164.623L469.318 164.454Z" fill="#719D61"/>
<path d="M476.257 145.818C477.964 143.615 480.021 141.648 482.416 140.19C484.801 138.699 487.445 137.761 490.067 136.947C492.689 136.122 495.322 135.399 497.729 134.144C500.137 132.912 502.216 131.07 503.787 128.833L503.922 128.923C502.442 131.24 500.419 133.263 497.978 134.608C495.548 135.975 492.893 136.8 490.316 137.693C487.739 138.574 485.219 139.614 482.97 141.061C480.71 142.507 478.755 144.349 477.026 146.417L476.257 145.818Z" fill="#719D61"/>
<path d="M459.102 93.5959C459.102 93.5959 457.102 90.974 456.48 89.2789C455.927 87.7758 457.464 87.821 457.464 87.821C457.464 87.821 457.305 86.6231 458.537 86.4762C459.645 86.3519 459.961 87.5724 459.961 87.5724C460.797 87.2899 461.283 87.821 460.922 89.4258C460.605 90.8497 459.102 93.5959 459.102 93.5959Z" fill="#E69771"/>
<path d="M459.306 93.6976C459.306 93.6976 461.035 90.8836 462.391 89.697C463.6 88.646 464.097 90.0925 464.097 90.0925C464.097 90.0925 465.16 89.5162 465.736 90.6124C466.256 91.5956 465.227 92.3415 465.227 92.3415C465.792 93.0195 465.476 93.6637 463.837 93.901C462.402 94.1157 459.306 93.6976 459.306 93.6976Z" fill="#E69771"/>
<path d="M459.272 93.9123C459.272 93.9123 462.515 94.5226 464.12 95.3588C465.532 96.1047 464.357 97.0992 464.357 97.0992C464.357 97.0992 465.284 97.8903 464.459 98.817C463.724 99.6533 462.662 98.9526 462.662 98.9526C462.233 99.7211 461.509 99.6533 460.707 98.218C460.006 96.9636 459.272 93.9123 459.272 93.9123Z" fill="#E69771"/>
<path d="M459.068 93.9688C459.068 93.9688 459.667 97.2123 459.452 99.0091C459.26 100.603 457.916 99.8567 457.916 99.8567C457.916 99.8567 457.509 100.998 456.345 100.569C455.305 100.184 455.565 98.9413 455.565 98.9413C454.695 98.817 454.503 98.1163 455.554 96.8506C456.48 95.7431 459.068 93.9688 459.068 93.9688Z" fill="#E69771"/>
<path d="M458.933 93.7993C458.933 93.7993 456.119 95.5171 454.367 95.9691C452.819 96.3647 453.022 94.839 453.022 94.839C453.022 94.839 451.813 94.8729 451.79 93.6298C451.779 92.5223 453.033 92.3189 453.033 92.3189C452.83 91.46 453.418 91.0305 454.977 91.5504C456.356 92.0137 458.933 93.7993 458.933 93.7993Z" fill="#E69771"/>
<path d="M460.447 93.788C460.447 94.5113 459.859 95.1102 459.125 95.1102C458.401 95.1102 457.803 94.5226 457.803 93.788C457.803 93.0534 458.39 92.4658 459.125 92.4658C459.859 92.4771 460.447 93.0647 460.447 93.788Z" fill="#FFBC3A"/>
<path d="M481.569 99.269C481.569 99.269 482.914 95.6075 484.213 93.901C485.366 92.398 486.293 93.9688 486.293 93.9688C486.293 93.9688 487.4 93.0534 488.316 94.1835C489.141 95.2006 488.123 96.3081 488.123 96.3081C488.937 96.9523 488.711 97.7886 486.88 98.4441C485.264 99.0204 481.569 99.269 481.569 99.269Z" fill="#E69771"/>
<path d="M481.591 99.529C481.591 99.529 485.49 99.4724 487.547 100.071C489.367 100.603 488.236 102.038 488.236 102.038C488.236 102.038 489.491 102.738 488.756 104.004C488.101 105.146 486.711 104.592 486.711 104.592C486.394 105.586 485.547 105.677 484.27 104.196C483.151 102.897 481.591 99.529 481.591 99.529Z" fill="#E69771"/>
<path d="M481.365 99.642C481.365 99.642 482.823 103.27 482.993 105.394C483.151 107.282 481.411 106.739 481.411 106.739C481.411 106.739 481.207 108.163 479.761 107.937C478.461 107.734 478.484 106.231 478.484 106.231C477.444 106.298 477.048 105.53 477.975 103.812C478.777 102.309 481.365 99.642 481.365 99.642Z" fill="#E69771"/>
<path d="M481.173 99.4725C481.173 99.4725 478.314 102.128 476.382 103.055C474.675 103.88 474.562 102.06 474.562 102.06C474.562 102.06 473.161 102.377 472.856 100.953C472.584 99.6646 473.986 99.1447 473.986 99.1447C473.556 98.1954 474.133 97.5626 476.065 97.7999C477.76 98.0146 481.173 99.4725 481.173 99.4725Z" fill="#E69771"/>
<path d="M481.264 99.2238C481.264 99.2238 477.76 97.5061 476.201 96.0369C474.822 94.7373 476.472 93.9801 476.472 93.9801C476.472 93.9801 475.67 92.7935 476.901 91.9911C478.009 91.2678 478.992 92.398 478.992 92.398C479.727 91.6521 480.529 91.9572 480.992 93.8558C481.399 95.5171 481.264 99.2238 481.264 99.2238Z" fill="#E69771"/>
<path d="M482.224 100.727C481.501 101.19 480.529 100.976 480.077 100.252C479.614 99.529 479.828 98.5571 480.552 98.105C481.275 97.6417 482.247 97.8564 482.699 98.5797C483.174 99.303 482.959 100.275 482.224 100.727Z" fill="#FFBC3A"/>
<path d="M435.991 119.543C435.991 119.543 439.879 118.571 442.071 118.696C444.015 118.809 443.213 120.493 443.213 120.493C443.213 120.493 444.625 120.899 444.196 122.335C443.8 123.623 442.286 123.397 442.286 123.397C442.207 124.459 441.371 124.753 439.755 123.566C438.331 122.538 435.991 119.543 435.991 119.543Z" fill="#E69771"/>
<path d="M435.777 119.713C435.777 119.713 438.071 122.99 438.749 125.081C439.348 126.934 437.483 126.787 437.483 126.787C437.483 126.787 437.607 128.256 436.116 128.369C434.771 128.471 434.443 126.968 434.443 126.968C433.415 127.273 432.85 126.595 433.369 124.663C433.822 122.967 435.777 119.713 435.777 119.713Z" fill="#E69771"/>
<path d="M435.551 119.577C435.551 119.577 433.313 122.9 431.607 124.278C430.092 125.499 429.55 123.702 429.55 123.702C429.55 123.702 428.228 124.346 427.583 122.99C427.007 121.77 428.295 120.922 428.295 120.922C427.64 120.074 428.069 119.306 430.058 119.103C431.799 118.922 435.551 119.577 435.551 119.577Z" fill="#E69771"/>
<path d="M435.584 119.317C435.584 119.317 431.686 118.413 429.787 117.317C428.103 116.345 429.584 115.192 429.584 115.192C429.584 115.192 428.51 114.187 429.55 113.102C430.488 112.13 431.731 113.023 431.731 113.023C432.285 112.107 433.155 112.231 434.07 114.017C434.861 115.588 435.584 119.317 435.584 119.317Z" fill="#E69771"/>
<path d="M435.844 119.261C435.844 119.261 435.279 115.294 435.63 113.124C435.935 111.203 437.54 112.175 437.54 112.175C437.54 112.175 438.093 110.807 439.472 111.384C440.715 111.904 440.331 113.395 440.331 113.395C441.382 113.588 441.585 114.446 440.241 115.938C439.077 117.238 435.844 119.261 435.844 119.261Z" fill="#E69771"/>
<path d="M435.121 120.945C434.308 120.594 433.935 119.656 434.285 118.843C434.635 118.029 435.573 117.656 436.387 118.006C437.201 118.357 437.574 119.295 437.223 120.108C436.873 120.922 435.935 121.295 435.121 120.945Z" fill="#FFBC3A"/>
<path d="M489.988 114.356C489.988 114.356 492.802 113.655 494.396 113.746C495.808 113.825 495.221 115.045 495.221 115.045C495.221 115.045 496.249 115.339 495.932 116.379C495.65 117.317 494.542 117.147 494.542 117.147C494.486 117.916 493.876 118.131 492.7 117.272C491.683 116.537 489.988 114.356 489.988 114.356Z" fill="#E69771"/>
<path d="M489.841 114.48C489.841 114.48 491.502 116.854 491.988 118.368C492.418 119.713 491.073 119.611 491.073 119.611C491.073 119.611 491.163 120.673 490.079 120.752C489.107 120.82 488.869 119.735 488.869 119.735C488.123 119.961 487.717 119.464 488.09 118.063C488.417 116.842 489.841 114.48 489.841 114.48Z" fill="#E69771"/>
<path d="M489.672 114.39C489.672 114.39 488.044 116.797 486.812 117.792C485.716 118.673 485.321 117.373 485.321 117.373C485.321 117.373 484.36 117.837 483.897 116.854C483.479 115.972 484.405 115.351 484.405 115.351C483.931 114.74 484.236 114.175 485.682 114.028C486.948 113.904 489.672 114.39 489.672 114.39Z" fill="#E69771"/>
<path d="M489.694 114.198C489.694 114.198 486.869 113.542 485.49 112.751C484.27 112.039 485.343 111.214 485.343 111.214C485.343 111.214 484.564 110.491 485.309 109.7C485.988 108.988 486.892 109.643 486.892 109.643C487.298 108.988 487.931 109.067 488.587 110.367C489.174 111.486 489.694 114.198 489.694 114.198Z" fill="#E69771"/>
<path d="M489.886 114.153C489.886 114.153 489.48 111.282 489.728 109.711C489.954 108.321 491.107 109.022 491.107 109.022C491.107 109.022 491.502 108.027 492.508 108.457C493.412 108.83 493.13 109.915 493.13 109.915C493.887 110.05 494.034 110.672 493.062 111.757C492.226 112.695 489.886 114.153 489.886 114.153Z" fill="#E69771"/>
<path d="M489.367 115.373C488.779 115.125 488.508 114.435 488.768 113.848C489.028 113.26 489.706 112.989 490.293 113.249C490.881 113.497 491.152 114.187 490.892 114.774C490.632 115.362 489.954 115.633 489.367 115.373Z" fill="#FFBC3A"/>
<path d="M445.213 108.31C442.275 104.694 443.36 102.49 443.699 102.015C444.026 101.552 448.038 104.84 447.078 108.751L445.213 108.31Z" fill="#E69771"/>
<path d="M448.038 109.022C448.716 103.168 446.298 100.975 446.106 101.292C444.569 103.846 445.982 109.327 445.982 109.327L448.038 109.022Z" fill="#E69771"/>
<path d="M447.541 110.887C443.834 108.231 442.263 105.575 445.53 107.214C444.942 104.038 446.422 104.976 447.292 107.315C447.677 104.739 449.564 105.552 447.541 110.887Z" fill="#719D61"/>
<path d="M501.56 129.24C503.131 124.843 505.584 124.64 506.149 124.685C506.714 124.73 505.979 129.861 502.137 131.07L501.56 129.24Z" fill="#E69771"/>
<path d="M502.397 132.02C507.753 129.556 508.375 126.358 508.013 126.369C505.041 126.38 501.074 130.426 501.074 130.426L502.397 132.02Z" fill="#E69771"/>
<path d="M500.543 132.573C500.894 128.03 502.352 125.307 502.645 128.957C505.064 126.81 505.019 128.562 503.47 130.528C505.877 129.5 506.16 131.534 500.543 132.573Z" fill="#719D61"/>
<path d="M450.299 127.228C452.288 121.148 450.502 119.984 455.373 118.097C456.062 122.47 452.627 123.691 450.299 127.228Z" fill="#719D61"/>
<path d="M458.413 114.672C458.887 109.949 458.673 107.248 463.543 105.36C464.244 109.734 462.007 112.243 458.413 114.672Z" fill="#719D61"/>
<path d="M484.97 131.703C480.45 125.081 481.524 124.516 482.247 119.679C485.648 123.114 485.886 126.109 484.97 131.703Z" fill="#719D61"/>
<path d="M475.907 147.728C471.387 141.106 472.46 140.541 473.183 135.704C476.596 139.139 476.822 142.134 475.907 147.728Z" fill="#719D61"/>
<path d="M443.45 142.473C451.474 142.281 449.824 142.778 453.485 146.022C448.739 147.005 447.631 146.282 443.45 142.473Z" fill="#719D61"/>
<path d="M453.022 125.759C460.696 128.11 458.967 128.064 461.419 132.291C456.616 131.726 455.791 130.697 453.022 125.759Z" fill="#719D61"/>
<path d="M482.428 114.198C477.263 120.334 477.975 118.775 473.127 119.362C475.523 115.158 476.8 114.808 482.428 114.198Z" fill="#719D61"/>
<path d="M493.311 128.415C488.146 134.551 488.858 132.992 484.01 133.579C486.417 129.387 487.683 129.036 493.311 128.415Z" fill="#719D61"/>
<path d="M492.327 136.518C500.193 134.947 498.656 135.715 502.826 138.269C498.328 140.055 497.119 139.546 492.327 136.518Z" fill="#719D61"/>
<path d="M470.189 123.725C468.166 119.442 466.584 117.227 469.793 113.102C472.641 116.492 472.008 119.803 470.189 123.725Z" fill="#719D61"/>
<path d="M470.754 132.291C468.448 139.976 468.482 138.258 464.267 140.733C464.809 135.919 465.826 135.094 470.754 132.291Z" fill="#719D61"/>
<path d="M490.723 148.87L489.739 154.859L488.643 161.437L486.01 177.428C485.807 178.671 485.468 179.857 485.004 180.987C484.157 183.112 482.891 184.999 481.32 186.582C478.246 189.667 473.997 191.543 469.375 191.543C464.753 191.543 460.503 189.667 457.43 186.582C455.859 184.999 454.593 183.112 453.745 180.987C453.293 179.857 452.943 178.671 452.74 177.428L450.095 161.437L449.01 154.859L448.027 148.87H490.723Z" fill="#FFBC3A"/>
<path d="M449.202 156.848H489.276" stroke="white" stroke-width="0.5" stroke-miterlimit="10" stroke-linecap="round" stroke-linejoin="round"/>
<path d="M453.09 179.304H485.535" stroke="white" stroke-width="0.5" stroke-miterlimit="10" stroke-linecap="round" stroke-linejoin="round"/>
<path d="M454.627 183.022H483.999" stroke="white" stroke-width="0.5" stroke-miterlimit="10" stroke-linecap="round" stroke-linejoin="round"/>
<path d="M448.536 152.339H490.112" stroke="white" stroke-width="0.5" stroke-miterlimit="10" stroke-linecap="round" stroke-linejoin="round"/>
<path d="M451.564 170.229L460.503 148.892L469.397 170.229L479.84 148.892L487.219 170.229L477.455 189.52L469.397 170.229L461.272 189.486L451.564 170.229Z" stroke="#322532" stroke-width="0.5" stroke-miterlimit="10" stroke-linecap="round" stroke-linejoin="round"/>
<path d="M460.503 148.892L469.397 105.564L479.84 148.892" stroke="#322532" stroke-width="0.5" stroke-miterlimit="10"/>
<path d="M451.564 148.892L469.397 105.564L487.219 148.892" stroke="#322532" stroke-width="0.5" stroke-miterlimit="10"/>
<path d="M469.397 105.564V0" stroke="#322532" stroke-width="0.5" stroke-miterlimit="10"/>
<path d="M316.81 97.3139C315.454 99.9923 314.075 102.659 312.798 105.372C311.623 108.129 310.323 110.841 309.238 113.644C307.068 119.238 305.192 124.945 303.734 130.743C302.288 136.54 301.022 142.372 300.197 148.282C299.463 154.17 298.909 160.171 299.338 166.047L298.219 166.239C297.677 163.188 297.541 160.159 297.587 157.119C297.598 154.079 297.846 151.051 298.219 148.033C298.954 142.01 300.31 136.077 302.084 130.291L303.486 125.974C303.972 124.538 304.548 123.137 305.068 121.724C306.074 118.876 307.306 116.119 308.47 113.339C309.611 110.548 310.956 107.847 312.188 105.1C313.544 102.411 314.934 99.7437 316.256 97.0314L316.81 97.3139Z" fill="#719D61"/>
<path d="M288.501 166.533C288.286 161.595 287.653 156.679 286.342 151.932C285.088 147.163 283.076 142.643 280.872 138.201C278.68 133.749 276.273 129.33 274.442 124.64C272.577 119.973 271.458 114.978 271.391 109.949L271.82 109.937C272.057 114.91 273.312 119.769 275.301 124.29C277.279 128.833 279.855 133.093 282.172 137.546C284.5 141.976 286.489 146.666 287.789 151.548C289.077 156.441 289.619 161.493 289.631 166.522L288.501 166.533Z" fill="#719D61"/>
<path d="M299.666 140.529C301.339 137.987 303.169 135.546 305.271 133.342C307.396 131.161 309.803 129.296 312.312 127.635C314.81 125.985 317.364 124.425 319.499 122.38C321.669 120.357 323.184 117.735 324.156 114.944L324.698 115.136C323.624 117.961 322.054 120.639 319.872 122.741C317.725 124.889 315.16 126.516 312.764 128.279C310.357 130.031 308.085 131.941 306.13 134.133C304.164 136.325 302.559 138.812 301.113 141.366L299.666 140.529Z" fill="#719D61"/>
<path d="M299.304 161.109L300.016 158.577C300.265 157.741 300.446 156.882 300.83 156.08L301.836 153.65C301.983 153.243 302.186 152.848 302.412 152.475L303.056 151.322C303.836 149.751 304.932 148.372 305.938 146.948C307.091 145.637 308.187 144.27 309.521 143.151C312.075 140.789 314.968 138.834 318.064 137.309C321.172 135.806 324.427 134.653 327.817 134.031L327.874 134.382C324.585 135.139 321.398 136.427 318.437 138.032C315.476 139.659 312.753 141.693 310.402 144.078C309.17 145.219 308.187 146.576 307.136 147.875C306.243 149.276 305.26 150.633 304.582 152.158L304.028 153.266C303.836 153.627 303.655 154.012 303.531 154.407L302.683 156.746C302.356 157.515 302.231 158.34 302.028 159.142L301.463 161.561L299.304 161.109Z" fill="#719D61"/>
<path d="M282.262 140.767C281.629 139.908 281.019 139.038 280.364 138.19C279.663 137.388 279.03 136.517 278.284 135.76C276.86 134.167 275.256 132.754 273.606 131.409C271.91 130.11 270.125 128.934 268.226 127.951C266.328 126.979 264.316 126.154 262.259 125.714L262.338 125.171C264.531 125.578 266.565 126.358 268.543 127.307C270.509 128.256 272.385 129.409 274.148 130.686C275.877 132.02 277.561 133.432 279.075 135.014C279.866 135.772 280.544 136.642 281.279 137.444C281.98 138.28 282.624 139.173 283.302 140.032L282.262 140.767Z" fill="#719D61"/>
<path d="M292.851 159.199C293.145 153.752 293.1 148.293 292.411 142.891C291.744 137.489 290.377 132.212 288.704 127.002C287.031 121.792 285.065 116.639 283.754 111.248C283.392 109.915 283.2 108.536 282.906 107.18C282.68 105.812 282.567 104.434 282.398 103.055L282.285 98.9074L282.511 94.7711L283.042 94.8164C282.68 100.275 283.325 105.745 284.726 111.011C286.105 116.288 288.161 121.374 289.936 126.595C290.399 127.895 290.783 129.217 291.213 130.539C291.62 131.861 291.959 133.206 292.332 134.54C292.659 135.885 292.919 137.252 293.213 138.608C293.484 139.964 293.643 141.354 293.857 142.722C294.547 148.237 294.49 153.808 293.982 159.301L292.851 159.199Z" fill="#719D61"/>
<path d="M294.965 155.289C294.626 152.26 294.467 149.22 294.682 146.18C294.919 143.14 295.586 140.168 296.456 137.297C297.327 134.427 298.298 131.602 298.626 128.652C298.999 125.714 298.491 122.73 297.462 119.961L298.005 119.769C298.988 122.628 299.485 125.691 299.157 128.708C298.875 131.737 297.948 134.619 297.236 137.512C296.502 140.394 295.97 143.309 295.869 146.259C295.756 149.209 296.106 152.136 296.626 155.029L294.965 155.289Z" fill="#719D61"/>
<path d="M286.319 118.108C284.929 112.107 286.353 106.942 289.065 103.518L286.319 118.108Z" fill="#719D61"/>
<path d="M289.066 126.019C284.093 118.797 279.833 119.713 279.833 119.713L289.066 126.019Z" fill="#719D61"/>
<path d="M290.173 129.432C288.173 120.086 292.173 116.435 292.173 116.435L290.173 129.432Z" fill="#719D61"/>
<path d="M308.424 114.503C310.018 104.739 305.825 102.377 305.825 102.377L308.424 114.503Z" fill="#719D61"/>
<path d="M305.836 121.317C311.464 113.328 317.929 113.927 317.929 113.927L305.836 121.317Z" fill="#719D61"/>
<path d="M292.625 125.827C298.491 132.268 296.716 137.761 296.716 137.761L292.625 125.827Z" fill="#719D61"/>
<path d="M314.798 126.426C322.336 124.651 325.76 128.008 325.76 128.008L314.798 126.426Z" fill="#719D61"/>
<path d="M311.261 128.878C316.471 122.595 314.787 118.797 314.787 118.797L311.261 128.878Z" fill="#719D61"/>
<path d="M313.51 140.959C319.895 134.992 318.934 130.969 318.934 130.969L313.51 140.959Z" fill="#719D61"/>
<path d="M320.415 142.552L307.746 145.525C307.746 145.525 315.024 140.111 320.415 142.552Z" fill="#719D61"/>
<path d="M277.459 130.065C274.871 121.182 278.442 116.435 278.442 116.435L277.459 130.065Z" fill="#719D61"/>
<path d="M277.934 134.619C269.198 130.743 263.898 134.619 263.898 134.619H277.934Z" fill="#719D61"/>
<path d="M285.167 145.558C279.098 139.761 273.617 143.807 273.617 143.807L285.167 145.558Z" fill="#719D61"/>
<path d="M271.978 111.7C269.684 109.869 269.752 106.231 272.216 103.902C274.917 107.383 273.99 108.864 271.978 111.7Z" fill="#7A9EBC"/>
<path d="M272.012 113.734C269.198 109.79 268.531 106.581 271.255 109.35C271.752 105.959 272.916 107.406 272.995 110.062C274.261 107.598 275.877 109.067 272.012 113.734Z" fill="#719D61"/>
<path d="M272.227 105.078L274.216 104.151C274.216 104.151 274.148 102.75 272.927 103.654C272.521 102.343 271.967 102.603 271.583 103.45C270.667 102.716 270.294 103.609 270.294 103.609L272.227 105.078Z" fill="#7A9EBC"/>
<path d="M321.94 119.475C320.856 116.752 322.72 113.621 326.02 112.83C326.642 117.193 325.093 118.018 321.94 119.475Z" fill="#7A9EBC"/>
<path d="M320.969 121.272C320.483 116.458 321.488 113.339 322.483 117.091C324.608 114.39 324.89 116.232 323.636 118.571C325.964 117.057 326.642 119.125 320.969 121.272Z" fill="#719D61"/>
<path d="M325.444 113.859L327.636 114.051C327.636 114.051 328.28 112.796 326.766 112.977C327.06 111.632 326.45 111.587 325.704 112.141C325.274 111.045 324.506 111.644 324.506 111.644L325.444 113.859Z" fill="#7A9EBC"/>
<path d="M298.525 125.736C295.993 124.256 295.541 120.639 297.643 117.984C300.819 121.046 300.118 122.651 298.525 125.736Z" fill="#7A9EBC"/>
<path d="M298.864 127.748C295.518 124.256 294.388 121.171 297.485 123.521C297.496 120.097 298.852 121.363 299.304 123.973C300.208 121.351 302.017 122.572 298.864 127.748Z" fill="#719D61"/>
<path d="M297.824 119.159L299.666 117.961C299.666 117.961 299.395 116.582 298.322 117.645C297.734 116.413 297.225 116.741 296.965 117.645C295.948 117.046 295.711 117.984 295.711 117.984L297.824 119.159Z" fill="#7A9EBC"/>
<path d="M282.624 94.952C280.33 93.1212 280.398 89.4822 282.861 87.1542C284.85 90.4089 284.635 92.1154 282.624 94.952Z" fill="#7A9EBC"/>
<path d="M282.624 94.952C283.618 92.1832 287.077 91.087 290.083 92.6692C287.642 95.5848 285.946 95.9352 282.624 94.952Z" fill="#7A9EBC"/>
<path d="M282.624 94.952C285.562 94.9972 287.721 97.9242 287.19 101.281C283.63 99.9019 282.76 98.4214 282.624 94.952Z" fill="#7A9EBC"/>
<path d="M282.624 94.952C283.528 97.7433 281.449 100.738 278.104 101.315C278.262 97.4947 279.381 96.1951 282.624 94.952Z" fill="#7A9EBC"/>
<path d="M282.624 94.952C280.273 96.7037 276.77 95.7092 275.143 92.7257C278.804 91.6408 280.398 92.2849 282.624 94.952Z" fill="#7A9EBC"/>
<path d="M282.262 96.0595C281.641 95.7883 281.347 95.065 281.618 94.4435C281.889 93.8219 282.613 93.5281 283.234 93.7993C283.856 94.0705 284.149 94.7938 283.878 95.4153C283.607 96.0482 282.884 96.3307 282.262 96.0595Z" fill="#FFBC3A"/>
<path d="M263.31 124.561C260.395 124.222 258.53 121.103 259.389 117.814C262.79 119.532 263.514 121.091 263.31 124.561Z" fill="#7A9EBC"/>
<path d="M263.31 124.561C262.689 121.69 265.039 118.922 268.43 118.673C267.899 122.448 266.655 123.634 263.31 124.561Z" fill="#7A9EBC"/>
<path d="M263.31 124.561C265.83 123.047 269.209 124.38 270.532 127.511C266.78 128.222 265.254 127.431 263.31 124.561Z" fill="#7A9EBC"/>
<path d="M263.31 124.561C265.559 126.46 265.378 130.087 262.847 132.347C260.96 129.025 261.22 127.33 263.31 124.561Z" fill="#7A9EBC"/>
<path d="M263.31 124.561C262.237 127.296 258.745 128.302 255.784 126.629C258.315 123.77 260.01 123.465 263.31 124.561Z" fill="#7A9EBC"/>
<path d="M263.581 125.691C262.915 125.793 262.282 125.329 262.18 124.651C262.078 123.985 262.542 123.352 263.22 123.25C263.887 123.148 264.519 123.612 264.621 124.29C264.723 124.968 264.26 125.589 263.581 125.691Z" fill="#FFBC3A"/>
<path d="M317.036 97.6417C314.222 96.7828 312.956 93.3811 314.391 90.2959C317.431 92.6014 317.861 94.2739 317.036 97.6417Z" fill="#7A9EBC"/>
<path d="M317.036 97.6417C316.945 94.7034 319.759 92.4093 323.138 92.7709C321.929 96.3986 320.494 97.3366 317.036 97.6417Z" fill="#7A9EBC"/>
<path d="M317.036 97.6417C319.782 96.602 322.867 98.5345 323.613 101.846C319.793 101.88 318.426 100.817 317.036 97.6417Z" fill="#7A9EBC"/>
<path d="M317.036 97.6417C318.9 99.9132 318.076 103.45 315.171 105.213C313.917 101.62 314.47 99.9923 317.036 97.6417Z" fill="#7A9EBC"/>
<path d="M317.036 97.6417C315.488 100.139 311.871 100.501 309.261 98.3197C312.267 95.9691 313.984 95.9804 317.036 97.6417Z" fill="#7A9EBC"/>
<path d="M317.104 98.817C316.426 98.7944 315.894 98.2293 315.917 97.5513C315.94 96.8732 316.505 96.342 317.183 96.3646C317.861 96.3873 318.392 96.9523 318.369 97.6304C318.347 98.2971 317.782 98.8396 317.104 98.817Z" fill="#FFBC3A"/>
<path d="M327.727 135.003C326.574 132.302 328.371 129.138 331.659 128.256C331.84 132.065 330.846 133.466 327.727 135.003Z" fill="#7A9EBC"/>
<path d="M327.727 135.003C329.919 133.048 333.49 133.726 335.377 136.551C331.829 137.953 330.179 137.455 327.727 135.003Z" fill="#7A9EBC"/>
<path d="M327.727 135.003C330.281 136.45 330.789 140.043 328.732 142.744C326.257 139.829 326.19 138.111 327.727 135.003Z" fill="#7A9EBC"/>
<path d="M327.727 135.003C327.184 137.885 323.941 139.535 320.72 138.439C322.675 135.161 324.291 134.551 327.727 135.003Z" fill="#7A9EBC"/>
<path d="M327.727 135.003C324.822 135.421 322.223 132.879 322.212 129.488C325.941 130.268 327.049 131.59 327.727 135.003Z" fill="#7A9EBC"/>
<path d="M326.879 135.806C326.461 135.274 326.551 134.495 327.082 134.076C327.614 133.658 328.393 133.749 328.812 134.28C329.23 134.811 329.139 135.591 328.608 136.009C328.066 136.427 327.297 136.337 326.879 135.806Z" fill="#FFBC3A"/>
<path d="M297.033 191.577C288.783 191.577 281.742 185.598 280.398 177.461L275.685 148.892H318.369L313.657 177.461C312.323 185.598 305.283 191.577 297.033 191.577Z" fill="#E69771"/>
<path d="M276.928 156.848H317.002" stroke="white" stroke-width="0.5" stroke-miterlimit="10" stroke-linecap="round" stroke-linejoin="round"/>
<path d="M280.816 179.304H313.261" stroke="white" stroke-width="0.5" stroke-miterlimit="10" stroke-linecap="round" stroke-linejoin="round"/>
<path d="M282.364 183.022H311.724" stroke="white" stroke-width="0.5" stroke-miterlimit="10" stroke-linecap="round" stroke-linejoin="round"/>
<path d="M276.261 152.339H317.838" stroke="white" stroke-width="0.5" stroke-miterlimit="10" stroke-linecap="round" stroke-linejoin="round"/>
<path d="M279.211 170.229L288.139 148.892L297.033 170.229L307.486 148.892L314.855 170.229L305.091 189.52L297.033 170.229L288.907 189.486L279.211 170.229Z" stroke="#322532" stroke-width="0.5" stroke-miterlimit="10" stroke-linecap="round" stroke-linejoin="round"/>
<path d="M288.139 148.892L297.033 105.564L307.486 148.892" stroke="#322532" stroke-width="0.5" stroke-miterlimit="10"/>
<path d="M279.211 148.892L297.033 105.564L314.855 148.892" stroke="#322532" stroke-width="0.5" stroke-miterlimit="10"/>
<path d="M297.033 105.564V0" stroke="#322532" stroke-width="0.5" stroke-miterlimit="10"/>
<path d="M641.853 287.173L628.043 283.387L638.745 291.298C631.591 300.723 624.155 310.905 623.477 322.918C623.24 326.84 622.765 330.558 621.974 334.027L605.666 337.564L601.417 338.48L606.864 338.932L620.29 340.062C619.352 342.831 618.245 345.43 616.956 347.837C610.933 359.161 600.366 392.047 588.85 393.889C588.85 393.889 588.85 393.889 588.839 393.889C588.489 393.189 572 360.766 587.223 311.176C589.246 304.599 591.924 298.463 595.043 292.823C595.145 292.631 595.247 292.45 595.348 292.27C613.837 259.248 647.356 243.234 651.944 260.073C654.476 269.283 648.791 277.951 641.853 287.173Z" fill="#719D61"/>
<path d="M616.956 347.848C607.881 377.005 600.366 392.058 588.85 393.9C588.85 393.9 588.85 393.9 588.839 393.9C588.376 393.9 563.152 393.539 585.098 314.295C586.94 307.662 591.789 298.666 595.043 292.835C595.145 292.642 595.247 292.462 595.348 292.281C594.354 300.632 593.902 313.075 597.563 324.342C597.563 324.342 600.084 330.682 605.666 337.576L601.417 338.491L606.864 338.943C609.577 342.051 612.922 345.227 616.956 347.848Z" fill="#223E44"/>
<path d="M588.67 431.985C587.867 318.68 628.099 264.412 649.424 255.948" stroke="#9BC190" stroke-width="0.5" stroke-miterlimit="10"/>
<path d="M588.59 324.534L581.007 331.371L588.771 329.021C589.359 352.798 585.064 375.401 573.526 377.48C558.224 380.271 549.658 339.452 549.127 310.702L560.066 313.55L549.229 306.385C549.285 304.599 549.387 299.412 549.522 297.83C551.037 280.923 556.721 263.678 566.926 252.942C573.277 263.44 578.702 275.544 582.544 287.523C585.754 297.547 587.924 311.029 588.59 324.534Z" fill="#719D61"/>
<path d="M549.511 297.83L582.533 287.523C578.702 275.555 573.255 263.452 566.915 252.942C556.721 263.678 551.025 280.923 549.511 297.83Z" fill="#223E44"/>
<path d="M568.791 258.728C573.311 306.43 575.221 397.178 572.475 429.928" stroke="#9BC190" stroke-width="0.5" stroke-miterlimit="10"/>
<path d="M549.489 297.83C554.8 287.67 563.4 282.89 572.622 279.59L569.785 264.118L576.453 278.313C590.184 273.996 604.593 271.758 611.611 259.361C613.272 256.434 611.95 252.772 609.531 250.41C607.282 248.206 604.141 246.229 600.445 244.873L584.093 249.811L593.133 243.132C576.182 241.075 554.032 252.015 549.489 297.83Z" fill="#B5CCAD"/>
<path d="M558.484 393.991C549.76 397.562 535.102 378.588 523.824 353.725C523.18 352.278 522.535 350.821 521.903 349.329C520.693 346.47 519.518 343.554 518.422 340.582L525.462 339.44L516.297 334.626C511.359 319.946 508.115 304.712 508.138 291.693L541.894 298.451C549.918 311.617 556.461 329.925 560.349 347.012L556.879 357.014L561.739 353.669C565.581 373.977 565.231 391.245 558.484 393.991Z" fill="#223E44"/>
<path d="M518.117 299.231C542.889 351.114 567.627 408.694 565.627 433.206" stroke="#9BC190" stroke-width="0.5" stroke-miterlimit="10"/>
<path d="M541.894 298.44C541.894 298.44 534.582 297.118 526.954 301.649L515.167 295.185L524.276 303.514C522.14 305.198 520.049 307.379 518.151 310.272C517.936 310.6 517.71 310.905 517.495 311.233C514.738 309.142 511.099 306.543 510.748 306.306L514.986 314.702C501.493 331.835 483.965 335.587 488.135 318.929C488.994 315.516 489.773 311.594 491.13 307.187L499.436 301.412L492.61 302.542C493.096 301.141 493.265 300.791 493.729 300.022C497.763 293.332 505.324 289.602 513.144 289.964C522.92 290.439 537.148 292.202 541.894 298.44Z" fill="#B5CCAD"/>
<path d="M599.134 418.514H557.354L553.15 483.846C552.642 491.723 558.891 498.391 566.791 498.391H590.037C597.959 498.391 604.22 491.678 603.677 483.778L599.134 418.514Z" fill="#ECE8E5"/>
<path d="M605.836 412.864H551.048V424.142H605.836V412.864Z" fill="#ECE8E5"/>
<path d="M556.62 424.154H585.064" stroke="#322532" stroke-width="0.5" stroke-miterlimit="10"/>
<path d="M587.585 424.154H592.241" stroke="#322532" stroke-width="0.5" stroke-miterlimit="10"/>
<path d="M502.385 424.425C503.674 412.005 514.161 414.627 514.161 414.627C514.828 425.126 502.385 424.425 502.385 424.425Z" fill="#719D61"/>
<path d="M480.201 443.456C467.499 446.021 468.527 433.534 468.527 433.534C480.506 431.951 480.201 443.456 480.201 443.456Z" fill="#719D61"/>
<path d="M489.513 459.571C474.359 445.569 479.105 429.013 491.152 421.893C503.278 414.717 507.358 425.939 495.989 428.256C479.987 431.522 473.974 411.768 491.152 404.919" stroke="#322532" stroke-width="0.5" stroke-miterlimit="10"/>
<path d="M463.905 455.672C480.574 441.422 498.215 442.088 513.449 456.373L463.905 455.672Z" fill="#223E44"/>
<path d="M517.066 452.259H460.311V467.007C460.311 474.071 466.041 479.8 473.104 479.8H504.261C511.325 479.8 517.054 474.071 517.054 467.007V452.259H517.066Z" fill="#ECE8E5"/>
<path d="M478.416 460.894H517.066" stroke="#322532" stroke-width="0.5" stroke-miterlimit="10"/>
<path d="M460.323 460.894H474.359" stroke="#322532" stroke-width="0.5" stroke-miterlimit="10"/>
<path d="M122.917 354.866C112.09 374.293 104.394 394.206 99.5797 410.909V326.761C99.5797 326.761 104.53 331.79 112.248 341.203C99.4328 355.036 105.479 357.364 117.164 347.351C118.995 349.657 120.916 352.165 122.917 354.866Z" fill="#719D61"/>
<path d="M198.205 528.599C167.273 547.234 146.491 566.389 146.773 558.106C147.067 550.014 167.963 530.441 196.329 518.665C193.842 506.256 190.531 492.797 186.655 479.97C168.087 490.502 163.115 545.641 143.485 531.446C129.663 521.445 150.536 482.693 183.671 470.601C179.626 458.351 175.071 446.733 170.223 435.805C144.423 452.474 151.881 435.048 166.098 426.775C163.465 421.17 160.764 415.779 158.029 410.581C130.839 432.946 125.64 482.332 111.254 469.143C97.3647 456.407 116.961 413.711 150.536 396.692C143.202 384.215 133.833 369.931 127.222 360.743C114.746 390.16 105.298 420.91 99.5797 437.376V565.056H200.804C202.51 559.179 202.103 548.895 198.205 528.599ZM122.973 532.192C118.645 537.956 103.433 532.791 111.197 528.847C119.73 524.496 127.29 526.44 122.973 532.192ZM111.254 503.126C110.045 478.557 129.799 472.07 134.24 486.118C138.693 500.154 112.361 525.932 111.254 503.126Z" fill="#719D61"/>
<path d="M664.636 413.384V353.657C655.55 361.523 650.114 370.304 646.848 379.492L664.636 413.384Z" fill="#719D61"/>
<path d="M644.452 387.866C642.858 395.008 642.271 402.286 642.033 409.473L657.753 427.872L641.887 418.006C641.762 435.037 642.203 451.016 634.213 462.747L651.255 483.62L625.5 471.404C623.409 472.839 621.059 474.161 618.38 475.325C609.927 479.032 602.751 483.247 596.75 487.858L630.382 531.865L583.641 500.854C577.888 508.437 574.498 516.698 573.198 525.31L597.1 541.81L572.678 537.108C573.232 546.285 575.888 555.71 580.431 565.045L664.636 565.056V419.272L644.452 387.866Z" fill="#719D61"/>
</svg>
