<svg width="16" height="16" viewBox="0 0 16 16" fill="none" xmlns="http://www.w3.org/2000/svg">
<path d="M14.9799 0.340221C14.95 0.269842 14.9005 0.208493 14.8368 0.16272C14.7731 0.116948 14.6974 0.088469 14.618 0.0803225C9.27443 -0.481394 3.18512 1.96669 1.33185 5.4334C0.449341 7.1437 0.683206 8.91269 2.02903 10.4637C1.02057 12.0057 0.334405 13.7179 0.00808644 15.5066C-0.0140477 15.6149 0.0096761 15.7272 0.0741103 15.819C0.138545 15.9108 0.238491 15.9748 0.352265 15.997C0.381535 16.001 0.411246 16.001 0.440516 15.997C0.543746 15.999 0.644437 15.9665 0.725062 15.9053C0.805688 15.844 0.861141 15.7578 0.88177 15.6617C1.17872 14.0548 1.77652 12.5115 2.64679 11.1051C3.66729 11.9605 4.96319 12.4615 6.32244 12.5261C6.51218 12.5261 6.70192 12.5261 6.88724 12.5261C7.72091 12.5397 8.54901 12.3946 9.32275 12.0995C10.0965 11.8043 10.8002 11.365 11.3925 10.8074C12.6059 9.26062 12.5883 7.9737 12.5662 6.74547C12.5397 5.15254 12.5177 3.50512 14.9093 0.780373C14.9633 0.720712 14.9987 0.647782 15.0111 0.569938C15.0236 0.492093 15.0128 0.412481 14.9799 0.340221ZM11.6837 6.74547C11.6837 7.94436 11.719 8.97976 10.7262 10.2625C10.1539 10.786 9.4691 11.1856 8.71882 11.4338C7.96854 11.682 7.17058 11.7729 6.3798 11.7003C5.17328 11.65 4.02573 11.1904 3.14541 10.405C4.11897 9.20045 5.38044 8.23339 6.82547 7.58386C6.93021 7.53383 7.00974 7.44632 7.04656 7.34058C7.08339 7.23485 7.07449 7.11955 7.02183 7.02004C6.96916 6.92054 6.87705 6.84499 6.76575 6.81C6.65445 6.77502 6.53308 6.78347 6.42834 6.8335C4.92638 7.52288 3.60798 8.52601 2.57177 9.76784C2.089 9.22885 1.78862 8.56404 1.7099 7.86029C1.63117 7.15654 1.77777 6.44659 2.13052 5.82325C3.65726 2.93921 8.41398 0.834868 13.0163 0.834868C13.2457 0.834868 13.4796 0.834868 13.709 0.834868C11.6307 3.46739 11.6616 5.20285 11.6837 6.74547Z" fill="white"/>
</svg>
