<svg width="101" height="140" viewBox="0 0 101 140" fill="none" xmlns="http://www.w3.org/2000/svg">
<path d="M72.6551 105.23C72.6551 110.17 62.5277 114.177 50.0394 114.177C37.5461 114.177 27.4237 110.17 27.4237 105.23C27.4237 100.291 37.5511 96.2834 50.0394 96.2834C62.5277 96.2834 72.6551 100.291 72.6551 105.23Z" fill="#8A5D33"/>
<path d="M68.4045 140C56.1999 140 43.9954 140 31.7908 140C29.1108 127.375 26.4307 114.755 23.7507 102.13C41.3153 102.13 58.88 102.13 76.4396 102.13C73.7697 114.755 71.0846 127.375 68.4045 140Z" fill="#E08D53"/>
<path d="M50.3484 102.13H23.7557C26.4358 114.755 29.1158 127.375 31.7959 140H50.3535V102.13H50.3484Z" fill="#CC7C3A"/>
<path d="M23.7557 102.13C25.8228 111.857 27.8847 121.589 29.9517 131.316C39.4003 116.857 57.3905 108.767 74.9552 109.162C75.4517 106.816 75.9532 104.476 76.4497 102.13C58.88 102.13 41.3204 102.13 23.7557 102.13Z" fill="#CECECE"/>
<path d="M77.3414 101.471H22.7324V108.377H77.3414V101.471Z" fill="#E08D53"/>
<path d="M50.2623 101.471H22.7324V108.377H50.2623V101.471Z" fill="#CC7C3A"/>
<path d="M65.5979 53.9499C61.7779 52.3996 59.0371 59.7963 60.2276 62.6588C60.2732 62.7753 60.3138 62.8868 60.3492 62.9982C60.3594 63.0286 60.3695 63.059 60.3746 63.0894C60.3999 63.1857 60.4252 63.2768 60.4455 63.3731C60.4506 63.3934 60.4556 63.4136 60.4607 63.4339C60.4809 63.5454 60.4961 63.6568 60.5113 63.7632C60.5113 63.7936 60.5164 63.8189 60.5164 63.8493C60.5215 63.9355 60.5316 64.0216 60.5316 64.1077C60.5316 64.1381 60.5316 64.1634 60.5316 64.1938C60.5316 64.3002 60.5316 64.4066 60.5215 64.513C60.5215 64.5333 60.5164 64.5535 60.5164 64.5738C60.5114 64.6599 60.5012 64.7461 60.486 64.8322C60.481 64.8626 60.481 64.893 60.4708 64.9234C60.4556 65.0247 60.4404 65.121 60.4151 65.2172C60.4151 65.2223 60.4151 65.2274 60.41 65.2274C60.3898 65.3287 60.3644 65.4249 60.334 65.5212C60.329 65.5465 60.3188 65.5769 60.3087 65.6023C60.2834 65.6833 60.258 65.7593 60.2327 65.8353C60.2276 65.8505 60.2226 65.8708 60.2124 65.886C60.177 65.9772 60.1466 66.0683 60.1061 66.1595C60.0959 66.1798 60.0858 66.2001 60.0807 66.2254C60.0503 66.2963 60.0199 66.3673 59.9845 66.4382C59.9743 66.4585 59.9642 66.4787 59.9591 66.499C59.9186 66.5851 59.8781 66.6662 59.8375 66.7472C59.8325 66.7574 59.8274 66.7675 59.8223 66.7776C59.7818 66.8486 59.7463 66.9195 59.7058 66.9853C59.6957 67.0005 59.6856 67.0157 59.6754 67.036C59.5893 67.188 59.4981 67.3248 59.412 67.4514C59.4069 67.4616 59.3968 67.4717 59.3917 67.4818C59.3512 67.5426 59.3106 67.6034 59.2701 67.6541C58.9915 68.0442 58.7736 68.2671 58.7736 68.2671C57.1828 69.1436 54.9537 67.7909 55.5515 63.7328C56.1493 59.6748 53.6415 56.5742 49.4669 57.2278C45.2924 57.8813 43.9802 62.7804 42.9062 65.5212C41.8321 68.2671 43.8637 76.976 47.2023 81.87C50.541 86.764 56.3874 89.3883 56.509 90.817C56.6255 92.2507 58.2011 104.334 62.9583 107.916C61.2713 101.117 70.35 94.2772 73.2124 81.3937C76.1002 68.5103 69.4178 55.5002 65.5979 53.9499Z" fill="#2C5900"/>
<path d="M57.4007 119.254C56.428 86.0851 48.3878 71.9908 41.8169 66.0076C36.315 61.0021 31.3703 61.2554 31.3196 61.2554L31.193 59.4924C31.421 59.4772 36.852 59.1479 42.9213 64.6245C49.781 70.8154 58.1657 85.3099 59.1637 119.198L57.4007 119.254Z" fill="#528421"/>
<path d="M54.5535 115.89C42.9264 58.2562 56.4128 49.983 56.9903 49.6588L57.8617 51.1938C57.8313 51.2141 54.6244 53.2254 52.8208 62.1014C51.1439 70.3442 50.384 86.3079 56.2811 115.54L54.5535 115.89Z" fill="#528421"/>
<path d="M50.2015 99.313C37.7892 30.9339 52.1318 21.1561 52.7448 20.7711L53.6871 22.2656C53.6516 22.2909 50.1863 24.7025 48.2358 35.3213C46.4322 45.1498 45.6115 64.1736 51.9342 98.9989L50.2015 99.313Z" fill="#528421"/>
<path d="M46.4474 99.156L44.6793 99.1458C44.8668 60.0091 40.7378 39.2882 37.2421 28.8061C33.4525 17.4324 29.5819 15.3248 29.5464 15.3046L30.3216 13.7188C30.9954 14.0329 46.8122 22.4632 46.4474 99.156Z" fill="#528421"/>
<path d="M49.396 38.8423C49.396 38.8423 56.6559 46.3049 56.6559 51.9842C63.2268 56.5843 75.0413 63.7581 77.3262 68.1151C79.6111 72.4771 85.0877 79.2456 91.228 79.5395C97.3682 79.8333 100.839 82.336 100.839 82.336C100.839 82.336 98.5132 77.7764 96.7603 74.2402C95.0125 70.709 94.6223 66.5851 90.8429 65.1868C87.0635 63.7936 84.9509 58.2765 81.9618 54.264C78.9727 50.2515 74.7779 47.6019 69.0784 46.1327C63.3788 44.6635 63.9462 40.5497 60.4252 39.8809C56.8991 39.2172 49.396 38.8423 49.396 38.8423Z" fill="#377705"/>
<path d="M56.352 51.2344C56.352 51.2344 61.6512 38.5941 59.0016 32.4437C63.8551 32.1802 67.8422 43.6603 70.1169 47.6323C72.3917 51.6042 77.4427 53.5192 76.0951 57.785C74.7475 62.0558 78.3547 68.5305 79.5655 71.322C74.8944 69.26 73.1415 64.3914 69.4026 61.4327C65.6637 58.474 55.8301 52.5769 56.352 51.2344Z" fill="#459B06"/>
<path d="M48.9097 84.4342C48.9097 84.4342 52.147 81.0499 50.6778 77.5187C49.2035 73.9876 52.5928 64.8633 57.2994 66.7783C62.011 68.6933 70.2487 84.7331 66.7175 100.626C63.1863 116.519 55.9416 124.908 58.0188 133.293C52.1521 128.88 46.2651 114.016 46.1182 112.248C45.9712 110.48 38.762 107.242 34.6381 101.214C30.5192 95.1797 28.0165 84.4392 29.3388 81.055C30.6611 77.6707 32.2823 71.6318 37.4296 70.8262C42.5819 70.0207 45.6723 73.8457 44.9327 78.8512C44.1981 83.8465 46.944 85.5133 48.9097 84.4342Z" fill="#377705"/>
<path d="M57.2943 66.7725C52.5877 64.8575 49.1984 73.9818 50.6727 77.513C51.7214 80.036 50.3738 82.4779 49.5176 83.6735C56.053 95.4019 52.2078 110.18 53.6162 123.094C54.2039 128.495 57.6945 133.044 58.0137 133.282C55.9365 124.892 63.1812 116.508 66.7124 100.615C70.2436 84.7273 62.0059 68.6876 57.2943 66.7725Z" fill="#459B06"/>
<path d="M72.417 88.2591C72.417 88.2591 73.1465 84.7127 70.735 83.0054C68.3184 81.298 66.7884 73.9317 70.659 73.2528C74.5296 72.574 86.5113 79.692 90.7264 91.5521C94.9365 103.412 93.6395 111.878 98.4423 116.519C92.7833 116.037 82.8281 108.722 82.0074 107.622C81.1867 106.528 75.1376 107.369 69.9599 105.109C64.7822 102.85 58.7331 96.8413 58.2113 94.0802C57.6894 91.3191 56.2709 86.6986 59.3106 84.0591C62.3504 81.4146 65.9474 82.6558 67.5179 86.2326C69.0935 89.8093 71.576 89.7739 72.417 88.2591Z" fill="#377705"/>
<path d="M70.659 73.2522C66.7884 73.9311 68.3184 81.2974 70.735 83.0047C72.4575 84.2257 72.5791 86.3789 72.5082 87.5137C81.6021 92.5141 85.1535 103.771 91.3799 111.649C93.984 114.942 98.1383 116.493 98.4423 116.518C93.6395 111.877 94.9364 103.412 90.7264 91.5515C86.5113 79.6914 74.5296 72.5683 70.659 73.2522Z" fill="#459B06"/>
<path d="M31.5983 59.2191C31.5983 59.2191 35.1294 55.2623 33.0675 47.6528C31.0055 40.0433 34.6887 34.4705 39.9829 36.8871C45.2822 39.3037 42.4856 50.9864 41.1583 54.933C39.836 58.8746 45.571 70.1875 40.2768 73.8757C34.9775 77.5639 31.2994 80.3554 27.6213 81.9057C23.9432 83.4509 19.9713 88.1625 17.1747 89.7786C14.3781 91.3998 7.02194 103.463 6.28227 109.35C3.04494 99.4906 -1.80851 86.06 0.68915 76.8091C3.19187 67.5581 1.42375 65.8204 4.51416 59.9182C7.60456 54.016 4.36724 50.9611 10.1073 47.7086C15.8473 44.456 18.6439 37.495 22.6158 37.3684C26.5878 37.2417 33.0624 36.0461 31.4463 42.3079C29.8302 48.5749 27.3274 59.9993 31.5983 59.2191Z" fill="#377705"/>
<path d="M41.1634 54.9327C42.4907 50.9912 45.2822 39.3033 39.988 36.8867C34.6887 34.4702 31.0106 40.038 33.0726 47.6525C35.1346 55.262 31.6034 59.2187 31.6034 59.2187C31.0968 59.3099 30.6864 59.2289 30.3571 59.011C12.8532 69.0523 8.26827 89.7023 6.04926 108.625C6.13032 108.868 6.21138 109.111 6.28737 109.354C7.02197 103.467 14.3832 91.3995 17.1798 89.7834C19.9764 88.1622 23.9483 83.4557 27.6264 81.9105C31.3045 80.3602 34.9826 77.5737 40.2819 73.8805C45.5761 70.1821 39.836 58.8742 41.1634 54.9327Z" fill="#459B06"/>
<path d="M36.5531 104.876C36.5531 104.876 38.4124 102.788 37.3282 98.7811C36.244 94.7737 38.1793 91.8352 40.9708 93.1119C43.7623 94.3836 42.2881 100.539 41.5889 102.616C40.8898 104.693 43.9143 110.651 41.1228 112.597C38.3313 114.542 36.396 116.011 34.4557 116.827C32.5153 117.643 30.4229 120.125 28.9487 120.976C27.4744 121.827 23.5987 128.186 23.2137 131.286C21.5063 126.093 18.9479 119.016 20.2651 114.142C21.5823 109.268 20.6552 108.351 22.2815 105.246C23.9077 102.135 22.2055 100.529 25.225 98.8115C28.2495 97.0991 29.7238 93.4311 31.8162 93.3652C33.9085 93.2994 37.3181 92.6661 36.467 95.9693C35.626 99.2725 34.3087 105.291 36.5531 104.876Z" fill="#377705"/>
<path d="M41.594 102.621C42.2932 100.544 43.7674 94.3886 40.9759 93.117C38.1844 91.8454 36.2441 94.7787 37.3333 98.7861C38.4175 102.794 36.5582 104.881 36.5582 104.881C36.2897 104.931 36.0769 104.886 35.9046 104.769C26.6841 110.058 24.2675 120.941 23.0972 130.906C23.1377 131.033 23.1833 131.164 23.2238 131.291C23.6089 128.191 27.4896 121.832 28.9588 120.981C30.4331 120.13 32.5254 117.648 34.4658 116.832C36.4062 116.016 38.3415 114.547 41.133 112.602C43.9194 110.656 40.8949 104.698 41.594 102.621Z" fill="#459B06"/>
<path d="M32.7686 16.9916C32.7686 16.9916 42.592 18.2886 41.4825 10.0053C40.373 1.72198 17.3368 -2.89337 14.5858 19.8085C25.0324 15.8011 32.7686 16.9916 32.7686 16.9916Z" fill="#F1162A"/>
<path d="M33.8021 16.5002C33.9996 17.0778 33.6957 17.706 33.1181 17.9036C32.5406 18.1011 31.9124 17.7972 31.7148 17.2196L26.2534 1.4636C26.0558 0.886044 26.3598 0.257831 26.9373 0.0602479C27.5149 -0.137336 28.1431 0.166638 28.3407 0.74419L33.8021 16.5002Z" fill="#FBDE16"/>
<path d="M38.9798 22.3973C38.9798 22.3973 35.1142 10.1471 25.002 12.2445C14.8898 14.342 10.6747 20.5481 12.7012 31.2632C14.2819 24.2161 26.4155 12.7968 38.9798 22.3973Z" fill="#BF010D"/>
<path d="M50.1053 28.9328C50.1053 28.9328 40.2818 30.2297 41.3913 21.9464C42.5008 13.6631 65.537 9.04776 68.288 31.7496C57.8364 27.7422 50.1053 28.9328 50.1053 28.9328Z" fill="#F1162A"/>
<path d="M49.0718 28.4363C48.8742 29.0138 49.1782 29.642 49.7557 29.8396C50.3333 30.0372 50.9615 29.7332 51.1591 29.1557L56.6205 13.3997C56.8181 12.8221 56.5141 12.1939 55.9416 11.9963C55.3691 11.7987 54.7358 12.1027 54.5382 12.6803L49.0718 28.4363Z" fill="#FBDE16"/>
<path d="M43.889 34.3384C43.889 34.3384 47.7545 22.0883 57.8667 24.1857C67.979 26.2831 72.1941 32.4893 70.1676 43.2044C68.592 36.1572 56.4583 24.7379 43.889 34.3384Z" fill="#BF010D"/>
</svg>
