<svg width="22" height="24" viewBox="0 0 22 24" fill="none" xmlns="http://www.w3.org/2000/svg">
<path d="M18.2171 13.56C17.8147 13.5907 17.4264 13.4523 17.1237 13.1696L17.1216 13.1675C16.8173 12.8832 16.6534 12.5053 16.6584 12.1027C16.66 11.9731 16.6804 11.8437 16.7149 11.7155C17.0996 11.9176 17.4574 12.1683 17.7788 12.4688C18.0997 12.7691 18.3738 13.1088 18.6011 13.4789C18.4749 13.5213 18.3468 13.5499 18.2171 13.56ZM17.2304 10.8323C17.1165 10.9533 17.021 11.0795 16.9403 11.2083C17.3817 11.4365 17.7922 11.7211 18.1591 12.0643C18.5257 12.4069 18.8369 12.7971 19.0939 13.2219C19.2174 13.1333 19.3375 13.0301 19.4514 12.9091C20.5512 11.7392 21.5767 9.14133 22 7.97893C20.8641 8.47467 18.3305 9.66213 17.2304 10.8323ZM13.2301 22.9139C13.2301 19.5723 14.4893 16.3872 16.7758 13.9451L16.963 13.7432C16.8007 13.6371 16.6721 13.5136 16.5571 13.3637L16.3694 13.5664C13.9863 16.1117 12.6739 19.4315 12.6739 22.9139V24H13.2301V22.9139ZM14.0141 11.1669L14.6751 8.51333C15.131 6.68507 16.0426 4.98053 17.3114 3.58427L17.6168 3.24827C15.8568 4.1648 14.3478 5.488 13.2063 7.14C13.2143 7.3512 13.2199 7.56267 13.2207 7.77493L13.2213 7.8456C13.2213 9.6768 12.9459 11.4776 12.4079 13.208C13.1908 12.7965 13.7895 12.068 14.0141 11.1669ZM15.6043 3.85173C16.3983 3.25733 17.2614 2.75413 18.1831 2.35493C17.3315 1.73067 16.3956 1.21547 15.3968 0.825867C15.5075 1.5016 15.5792 2.1752 15.6014 2.83413C15.615 3.16133 15.6132 3.504 15.6043 3.85173ZM12.8044 3.98747C12.9683 4.73947 13.0849 5.50213 13.1515 6.27253C13.7106 5.548 14.3401 4.8904 15.031 4.30747C15.058 3.79893 15.0647 3.31333 15.0455 2.85493C15.0252 2.24613 14.9642 1.6256 14.8661 1.0024C14.4123 1.51893 13.9911 2.06213 13.6136 2.6256C13.3183 3.0688 13.0477 3.52693 12.8044 3.98747ZM6.3141 2.83307C6.3387 2.16293 6.41036 1.48933 6.51946 0.8232C5.51618 1.21387 4.57654 1.7312 3.72166 2.3584C4.64847 2.76053 5.51591 3.26667 6.31223 3.86533C6.3034 3.5224 6.30126 3.17787 6.3141 2.83307ZM12.6121 3.18987C12.7828 2.89573 12.9606 2.60373 13.1507 2.31813C13.5692 1.6936 14.0403 1.09493 14.5481 0.527467C13.555 0.222667 12.5079 0.0426667 11.4257 0.00160001C11.7968 0.7696 12.1188 1.56293 12.3752 2.37093C12.4616 2.64187 12.5391 2.91547 12.6121 3.18987ZM8.81963 6.36933C8.8822 5.59573 8.99664 4.82853 9.15815 4.07067C8.89904 3.5768 8.61266 3.09093 8.30194 2.62693C7.92197 2.05947 7.50215 1.5136 7.04971 0.997867C6.95291 1.61333 6.89275 2.2352 6.87002 2.8536C6.85157 3.3464 6.85879 3.84027 6.88633 4.32507C7.60002 4.92933 8.24793 5.6136 8.81963 6.36933ZM9.34908 3.2688C9.44588 2.89867 9.55123 2.5304 9.67183 2.1664C9.91596 1.42853 10.2152 0.7032 10.555 0C9.44989 0.0357333 8.38056 0.215467 7.36765 0.525867C7.8733 1.09147 8.34392 1.6912 8.76428 2.31893C8.97071 2.62693 9.16377 2.94587 9.34908 3.2688ZM9.31672 7.8048L9.31592 7.8456C9.31592 9.7776 9.62985 11.6749 10.247 13.4867C10.4754 13.5408 10.7117 13.5725 10.9545 13.5747C11.2243 13.5723 11.4877 13.536 11.7396 13.4696C12.3528 11.6629 12.6651 9.77173 12.6651 7.8456L12.6646 7.7824C12.6579 5.98747 12.3822 4.22507 11.8452 2.53867C11.6107 1.8 11.3241 1.07147 10.9906 0.3664C10.6871 1.008 10.4219 1.66987 10.2002 2.34027C9.61781 4.09813 9.32047 5.93653 9.31672 7.8048ZM8.77256 7.25707C7.62328 5.552 6.09135 4.18373 4.29015 3.24507L4.59846 3.58427C5.86754 4.98107 6.7791 6.6856 7.23475 8.5136L7.89576 11.1672C8.1284 12.1005 8.76294 12.8488 9.58733 13.2509C9.04023 11.5072 8.76 9.692 8.76 7.84587L8.76107 7.79147C8.76107 7.6128 8.76695 7.43493 8.77256 7.25707ZM3.7829 13.56C4.18533 13.5907 4.5736 13.4523 4.87629 13.1696L4.87843 13.1675C5.18273 12.8832 5.34665 12.5053 5.34157 12.1027C5.33996 11.9731 5.31964 11.8437 5.28514 11.7155C4.90036 11.9176 4.54258 12.1683 4.22116 12.4688C3.90028 12.7691 3.6262 13.1088 3.39891 13.4789C3.52512 13.5213 3.65321 13.5499 3.7829 13.56ZM0 7.97867C0.423293 9.14133 1.4485 11.7389 2.54858 12.9088C2.66249 13.0299 2.78229 13.1331 2.90609 13.2216C3.16306 12.7965 3.47432 12.4067 3.84092 12.064C4.20806 11.7208 4.61825 11.4363 5.05973 11.208C4.97897 11.0792 4.88351 10.9533 4.7696 10.832C3.66952 9.66213 1.13591 8.47467 0 7.97867ZM8.76989 24H9.32608V22.9139C9.32608 19.4315 8.01369 16.1117 5.63062 13.5664L5.44291 13.3637C5.32766 13.5133 5.19931 13.6371 5.037 13.7432L5.22418 13.9451C7.51071 16.3872 8.76989 19.5725 8.76989 22.9139V24ZM11.2687 24V14.1109C11.1858 14.1187 11.0837 14.1288 10.9829 14.1288C10.8877 14.1288 10.7906 14.1232 10.7128 14.1173V24H11.2687Z" fill="white"/>
</svg>
