<svg width="17" height="16" viewBox="0 0 17 16" fill="none" xmlns="http://www.w3.org/2000/svg">
<path d="M12.0123 13.5131C10.7326 13.37 9.38539 13.2949 8.00048 13.2949C6.57242 13.2949 5.18298 13.3733 3.86786 13.5252V11.9916L4.76435 11.0936C4.95029 11.2224 5.1705 11.2929 5.40392 11.2929C5.41095 11.2929 5.41808 11.2929 5.42521 11.2927C5.73281 11.2872 6.02372 11.1625 6.24451 10.9417C6.80854 10.3773 6.79927 9.02991 6.79858 8.97288C6.79731 8.86556 6.71158 8.77835 6.60426 8.77533C6.54811 8.77415 5.21926 8.743 4.63296 9.3296C4.22523 9.73759 4.17469 10.3637 4.48236 10.81L3.86786 11.4255V7.81321C4.49134 7.75425 5.04511 7.42451 5.39083 6.89709C6.08739 6.85764 6.70406 6.47924 7.05629 5.86911C7.40852 5.25898 7.42785 4.53577 7.1138 3.91285C7.42785 3.28993 7.40852 2.56662 7.05629 1.95649C6.70406 1.34637 6.08729 0.967965 5.39083 0.928513C5.00843 0.345044 4.37233 0.00013745 3.66777 0.00013745C2.96331 0.00013745 2.3273 0.345141 1.94499 0.928513C1.24844 0.968062 0.631674 1.34637 0.279444 1.95659C-0.0727862 2.56662 -0.0921213 3.28993 0.221927 3.91285C-0.0921213 4.53567 -0.0727862 5.25888 0.279444 5.86901C0.631674 6.47914 1.24844 6.85754 1.94499 6.89709C2.29064 7.42453 2.84437 7.75429 3.46787 7.81322V11.4251L2.85379 10.8101C3.16155 10.3637 3.1109 9.7376 2.70316 9.3296C2.11667 8.743 0.788698 8.77357 0.731963 8.77533C0.624643 8.77835 0.538905 8.86556 0.537635 8.97288C0.536952 9.02991 0.527675 10.3773 1.09171 10.9417C1.3124 11.1625 1.60341 11.2872 1.91091 11.2927C1.91804 11.2929 1.92517 11.2929 1.9322 11.2929C2.16563 11.2929 2.38583 11.2224 2.57177 11.0936L3.46787 11.9912V13.5775C2.28974 13.7289 1.17241 13.9375 0.149958 14.2066C0.0431265 14.2347 -0.0206402 14.3441 0.00738591 14.4509C0.035412 14.5577 0.144977 14.6218 0.251711 14.5935C1.24311 14.3326 2.32607 14.1296 3.46787 13.9808V15.8C3.46787 15.9105 3.55742 16 3.66787 16C3.77831 16 3.86786 15.9105 3.86786 15.8V13.928C5.18107 13.7744 6.57066 13.6949 8.00048 13.6949C9.38676 13.6949 10.7346 13.7703 12.0123 13.9149V15.7575C12.0123 15.868 12.1019 15.9575 12.2123 15.9575C12.3227 15.9575 12.4123 15.868 12.4123 15.7575V13.9649C13.599 14.1147 14.7228 14.3234 15.7493 14.5935C15.7662 14.598 15.7834 14.6002 15.8002 14.6002C15.8889 14.6001 15.9699 14.5407 15.9936 14.4509C16.0216 14.3441 15.9578 14.2347 15.851 14.2066C14.7935 13.9283 13.6354 13.7139 12.4123 13.5615V11.868L13.3088 10.97C13.4947 11.0988 13.7149 11.1693 13.9484 11.1693C13.9554 11.1693 13.9625 11.1693 13.9696 11.1691C14.2772 11.1636 14.5682 11.0389 14.7889 10.8181C15.353 10.2537 15.3437 8.90628 15.343 8.84915C15.3418 8.74183 15.256 8.65463 15.1487 8.6516C15.0924 8.65043 13.7639 8.61928 13.1774 9.20597C12.7698 9.61396 12.7192 10.2401 13.0268 10.6864L12.4123 11.3019V7.42865C12.576 7.53124 12.7606 7.57821 12.9409 7.57821C13.0359 7.57821 13.1295 7.56562 13.2179 7.54189C13.5471 7.45371 13.8628 7.19688 13.949 6.79719C14.3384 6.92248 14.7185 6.77737 14.9595 6.53637C15.2005 6.29536 15.3455 5.9151 15.2204 5.52586C15.62 5.43954 15.8769 5.12393 15.9651 4.79474C16.0532 4.46546 15.9887 4.06372 15.6857 3.78913C15.9887 3.51463 16.0532 3.11289 15.9651 2.78361C15.8769 2.45442 15.6201 2.13871 15.2204 2.05249C15.3455 1.66315 15.2005 1.28289 14.9594 1.04189C14.7185 0.801078 14.3384 0.656065 13.949 0.781157C13.8627 0.381468 13.5471 0.124644 13.2179 0.0364639C12.8887 -0.0520086 12.4868 0.0128321 12.2123 0.315846C11.9378 0.0126369 11.5364 -0.0518133 11.2068 0.0364639C10.8776 0.124644 10.5619 0.381468 10.4757 0.781157C10.0867 0.656065 9.70597 0.800882 9.46516 1.04198C9.22416 1.28299 9.07914 1.66325 9.20433 2.05249C8.80465 2.13881 8.54782 2.45442 8.45964 2.78361C8.37136 3.11289 8.43591 3.51463 8.73902 3.78913C8.43591 4.06372 8.37136 4.46546 8.45964 4.79474C8.54782 5.12393 8.80465 5.43954 9.20433 5.52586C9.07924 5.9151 9.22416 6.29536 9.46506 6.53627C9.70607 6.77747 10.0862 6.92277 10.4757 6.79719C10.5619 7.19688 10.8776 7.45371 11.2068 7.54189C11.4631 7.61058 11.7624 7.58474 12.0123 7.42801V11.3015L11.3982 10.6864C11.706 10.2401 11.6553 9.61397 11.2476 9.20597C10.6612 8.61928 9.33294 8.64926 9.2764 8.6516C9.16908 8.65463 9.08334 8.74183 9.08207 8.84915C9.08139 8.90628 9.07211 10.2537 9.63615 10.8181C9.85684 11.0389 10.1478 11.1636 10.4554 11.1691C10.4625 11.1693 10.4696 11.1693 10.4766 11.1693C10.7101 11.1693 10.9303 11.0988 11.1162 10.97L12.0123 11.8676V13.5131ZM1.91814 10.8928C1.71473 10.8892 1.52167 10.8061 1.37471 10.6589C1.06242 10.3465 0.963104 9.60556 0.942109 9.17697C1.36455 9.19308 2.09528 9.28722 2.42017 9.6124C2.6703 9.86261 2.71736 10.2341 2.56293 10.5187L1.93747 9.89227C1.85945 9.81395 1.73289 9.81415 1.65467 9.89207C1.57655 9.9701 1.57646 10.0968 1.65448 10.1749L2.27992 10.8013C2.1697 10.8609 2.04589 10.8944 1.91814 10.8928ZM4.91595 9.6124C5.24094 9.28712 5.97186 9.19298 6.3943 9.17697C6.3736 9.60527 6.27458 10.3458 5.96151 10.6589C5.81445 10.8061 5.62149 10.8892 5.41798 10.8928C5.28749 10.8955 5.16471 10.8617 5.05558 10.8019L5.68164 10.1749C5.75967 10.0968 5.75957 9.9701 5.68145 9.89207C5.60323 9.81385 5.47667 9.81385 5.39865 9.89227L4.77321 10.5187C4.61884 10.2341 4.66583 9.86261 4.91595 9.6124ZM6.70992 5.66912C6.42973 6.1545 5.94086 6.45442 5.38843 6.49285L4.52801 5.00249C4.61322 4.93507 4.69019 4.85807 4.7576 4.77286L5.14895 4.99893C5.1804 5.0171 5.21487 5.02569 5.24875 5.02569C5.31789 5.02569 5.38507 4.98985 5.42208 4.9257C5.47735 4.83009 5.44464 4.70774 5.34894 4.65256L4.95809 4.42677C4.99788 4.32725 5.02582 4.22207 5.04167 4.11284H6.76251C7.00546 4.61044 6.9902 5.18374 6.70992 5.66912ZM3.66787 4.90275C3.12199 4.90275 2.67797 4.45872 2.67797 3.91285C2.67797 3.36698 3.12199 2.92286 3.66787 2.92286C4.21374 2.92286 4.65776 3.36698 4.65776 3.91285C4.65776 4.45872 4.21374 4.90275 3.66787 4.90275ZM6.70992 2.15649C6.9902 2.64188 7.00553 3.21519 6.76251 3.71286H5.04167C5.02581 3.60362 4.99787 3.4984 4.95809 3.39889L5.34894 3.17324C5.44464 3.11797 5.47735 2.99571 5.42218 2.90001C5.36671 2.80421 5.24475 2.7713 5.14895 2.82677L4.75757 3.05272C4.69018 2.96751 4.61321 2.89051 4.52801 2.82312L5.38843 1.33276C5.94085 1.37118 6.42963 1.67102 6.70992 2.15649ZM3.66787 0.400119C4.22833 0.400119 4.73243 0.673483 5.04201 1.13269L4.18187 2.62257C4.08232 2.58276 3.9771 2.55481 3.86786 2.53895V2.08715C3.86786 1.97671 3.77831 1.88716 3.66787 1.88716C3.55742 1.88716 3.46787 1.97671 3.46787 2.08715V2.53895C3.35863 2.55481 3.25341 2.58275 3.15387 2.62255L2.29385 1.13275C2.60324 0.673508 3.10728 0.400119 3.66787 0.400119ZM0.625815 2.15649C0.9061 1.67111 1.39487 1.37118 1.94739 1.33276L2.80774 2.82312C2.72253 2.89051 2.64557 2.9675 2.57818 3.0527L2.18678 2.82677C2.09089 2.7713 1.96872 2.80421 1.91355 2.90001C1.85838 2.99571 1.89119 3.11797 1.98679 3.17324L2.37765 3.39885C2.33786 3.49838 2.30992 3.60361 2.29406 3.71286H0.573315C0.330296 3.21519 0.345615 2.64196 0.625815 2.15649ZM0.625815 5.66902C0.345615 5.18364 0.330284 4.61041 0.573303 4.11284H2.29406C2.30991 4.22207 2.33786 4.32726 2.37765 4.42678L1.98679 4.65247C1.89109 4.70774 1.85838 4.83009 1.91355 4.9257C1.95066 4.98985 2.01784 5.02569 2.08698 5.02569C2.12086 5.02569 2.15534 5.0171 2.18678 4.99893L2.57819 4.77293C2.64558 4.85812 2.72255 4.93511 2.80774 5.00249L1.94739 6.49285C1.39487 6.45442 0.9061 6.15449 0.625815 5.66902ZM2.29385 6.69285L3.15387 5.20305C3.25341 5.24284 3.35863 5.2708 3.46787 5.28665V5.73845C3.46787 5.8489 3.55742 5.93844 3.66787 5.93844C3.77831 5.93844 3.86786 5.8489 3.86786 5.73845V5.28665C3.9771 5.2708 4.08232 5.24283 4.18187 5.20304L5.04201 6.69291C4.73243 7.15212 4.22833 7.42549 3.66787 7.42549C3.10728 7.42549 2.60324 7.1521 2.29385 6.69285ZM10.4626 10.7692C10.2592 10.7656 10.0661 10.6825 9.91915 10.5353C9.60686 10.2229 9.50754 9.48194 9.48655 9.05324C9.90899 9.06936 10.6397 9.16359 10.9646 9.48877C11.2147 9.73898 11.2618 10.1105 11.1074 10.3951L10.4819 9.76864C10.4038 9.69042 10.2772 9.69042 10.1991 9.76845C10.121 9.84647 10.1209 9.97312 10.1989 10.0512L10.8249 10.6782C10.7148 10.7385 10.5911 10.7726 10.4626 10.7692ZM13.4604 9.48877C13.7854 9.16359 14.5161 9.06936 14.9385 9.05324C14.9176 9.48194 14.8182 10.2229 14.506 10.5353C14.3589 10.6825 14.1659 10.7656 13.9624 10.7692C13.8318 10.772 13.7091 10.7382 13.6 10.6784L14.2261 10.0512C14.3041 9.97312 14.304 9.84647 14.2259 9.76845C14.1476 9.69013 14.021 9.69032 13.9431 9.76864L13.3176 10.3951C13.1633 10.1105 13.2103 9.73897 13.4604 9.48877ZM15.5788 4.69123C15.5165 4.92345 15.3065 5.18174 14.9251 5.14531C14.8486 5.13897 14.7721 5.17656 14.7329 5.24443C14.6938 5.3122 14.6978 5.39657 14.7431 5.46034C14.9661 5.7738 14.8467 6.08355 14.6767 6.25357C14.5125 6.41757 14.2177 6.53178 13.9151 6.33832L12.9655 4.69368C13.0204 4.64789 13.0711 4.59726 13.1168 4.54236L13.7319 4.89747C13.7633 4.91564 13.7978 4.92423 13.8317 4.92423C13.9008 4.92423 13.968 4.88839 14.0051 4.82424C14.0603 4.72863 14.0276 4.60628 13.9319 4.55101L13.3164 4.19563C13.3409 4.12931 13.3596 4.0604 13.3719 3.98912H15.2713C15.5902 4.15443 15.6389 4.46684 15.5788 4.69123ZM12.2123 4.56702C11.7834 4.56702 11.4345 4.21801 11.4345 3.78913C11.4345 3.36024 11.7834 3.01133 12.2123 3.01133C12.6412 3.01133 12.9902 3.36024 12.9902 3.78913C12.9902 4.21801 12.6412 4.56702 12.2123 4.56702ZM14.6766 1.32478C14.8467 1.4948 14.9661 1.80455 14.7431 2.11801C14.6978 2.18178 14.6938 2.26615 14.7329 2.33392C14.7722 2.40179 14.8486 2.44026 14.9251 2.43304C15.3065 2.39524 15.5165 2.6548 15.5788 2.88712C15.6389 3.11154 15.5902 3.42394 15.2712 3.58914H13.3719C13.3596 3.51789 13.3409 3.44902 13.3164 3.38272L13.9319 3.02734C14.0276 2.97207 14.0603 2.84972 14.0051 2.75411C13.9496 2.65842 13.8275 2.62551 13.7319 2.68088L13.1169 3.03599C13.0711 2.98111 13.0204 2.93045 12.9655 2.88468L13.9151 1.24002C14.2174 1.04664 14.5126 1.16041 14.6766 1.32478ZM11.3104 0.422775C11.5428 0.36057 11.8705 0.412131 12.0305 0.761822C12.063 0.83301 12.1341 0.878613 12.2123 0.878613C12.2905 0.878613 12.3616 0.83301 12.3941 0.761822C12.5542 0.412033 12.8818 0.360277 13.1144 0.422775C13.3388 0.482977 13.585 0.681308 13.5686 1.04001L12.6188 2.68515C12.5525 2.66065 12.4836 2.64191 12.4123 2.62965V1.91909C12.4123 1.80865 12.3227 1.7191 12.2123 1.7191C12.1019 1.7191 12.0123 1.80865 12.0123 1.91909V2.62965C11.9411 2.64191 11.8722 2.66065 11.8059 2.68514L10.8561 1.04001C10.8397 0.681296 11.0859 0.482892 11.3104 0.422775ZM8.84595 2.88721C8.90825 2.6548 9.11742 2.39505 9.49963 2.43304C9.57883 2.44036 9.65265 2.40159 9.69181 2.33392C9.73087 2.26615 9.72687 2.18178 9.68156 2.11801C9.45852 1.80455 9.57795 1.4948 9.74796 1.32478C9.91225 1.1604 10.2072 1.04664 10.5096 1.24003L11.4592 2.88466C11.4043 2.93044 11.3536 2.98111 11.3078 3.03599L10.6927 2.68088C10.5967 2.62551 10.4748 2.65842 10.4195 2.75411C10.3643 2.84981 10.3971 2.97207 10.4928 3.02734L11.1083 3.38272C11.0838 3.44902 11.0651 3.51789 11.0528 3.58914H9.1533C8.83453 3.42391 8.78585 3.11151 8.84595 2.88721ZM9.74796 6.25347C9.57795 6.08355 9.45862 5.7738 9.68156 5.46034C9.72687 5.39657 9.73087 5.3122 9.69181 5.24443C9.65275 5.17656 9.57707 5.13897 9.49963 5.14531C9.11752 5.18174 8.90825 4.92345 8.84595 4.69123C8.78585 4.46684 8.83455 4.15443 9.15331 3.98912H11.0528C11.0651 4.06039 11.0838 4.1293 11.1083 4.19561L10.4928 4.55101C10.3971 4.60628 10.3643 4.72854 10.4195 4.82424C10.4566 4.88839 10.5238 4.92423 10.5929 4.92423C10.6268 4.92423 10.6612 4.91564 10.6927 4.89747L11.3078 4.54235C11.3536 4.59724 11.4043 4.64789 11.4592 4.69368L10.5096 6.33832C10.207 6.5318 9.91207 6.41776 9.74796 6.25347ZM11.3103 7.15558C11.0859 7.09546 10.8397 6.89705 10.8561 6.53834L11.8059 4.89321C11.8722 4.9177 11.9411 4.93644 12.0123 4.94871V5.65926C12.0123 5.7697 12.1019 5.85925 12.2123 5.85925C12.3227 5.85925 12.4123 5.7697 12.4123 5.65926V4.94871C12.4836 4.93644 12.5525 4.9177 12.6188 4.8932L13.5686 6.53834C13.585 6.89704 13.3388 7.09537 13.1144 7.15558C12.8822 7.21749 12.5542 7.16641 12.3941 6.81643C12.3616 6.74524 12.2905 6.69964 12.2123 6.69964C12.134 6.69964 12.063 6.74534 12.0304 6.81643C11.8705 7.16622 11.5427 7.21778 11.3103 7.15558Z" fill="#2E8B57"/>
</svg>
