<svg width="97" height="140" viewBox="0 0 97 140" fill="none" xmlns="http://www.w3.org/2000/svg">
<path d="M50.8892 106.88L49.4958 106.041C49.5094 106.018 49.7999 105.469 49.455 104.574C49.0011 103.394 47.1901 101.052 40.1549 98.6014L40.6905 97.0627C46.6182 99.1234 50.0949 101.493 51.0163 104.098C51.5791 105.696 50.9618 106.762 50.8892 106.88Z" fill="#459B06"/>
<path d="M55.1967 108.201C54.9334 107.588 48.9285 92.8462 60.2938 66.7025L61.787 67.3516C50.7259 92.7872 56.6309 107.42 56.6945 107.566L55.1967 108.201Z" fill="#459B06"/>
<path d="M70.2565 33.1697C70.2565 33.1697 71.8541 45.42 72.2036 54.1119C72.8754 70.7376 61.7916 74.2007 57.0621 77.0375C50.7532 64.8961 55.9002 53.9122 62.0957 45.4109C68.2866 36.9097 69.5484 36.3242 70.2565 33.1697Z" fill="#2C5900"/>
<path d="M72.2036 54.1164C71.5591 45.4155 70.2565 33.1743 70.2565 33.1743C70.2747 39.7555 66.0989 61.4148 58.392 74.7272C58.0107 75.3899 57.4071 76.3703 57.0621 77.042C62.2818 74.5547 73.4155 70.4062 72.2036 54.1164Z" fill="#2C5900"/>
<path d="M0 93.6632C0 93.6632 11.4333 85.6294 19.9572 83.8729C36.2561 80.5142 44.3761 92.5194 45.4291 99.5682C34.4724 107.761 27.8457 100.644 18.4503 95.9099C9.05041 91.1804 3.45404 92.7826 0 93.6632Z" fill="#377705"/>
<path d="M18.4458 95.9099C27.764 100.603 34.3589 107.634 45.1522 99.7634C42.0386 96.2186 35.1123 94.807 22.8847 91.9521C17.0705 90.5949 8.33328 91.707 0.449339 93.35C0.163393 93.5452 0 93.6587 0 93.6587C3.45404 92.7827 9.05041 91.1805 18.4458 95.9099Z" fill="#2C5900"/>
<path d="M96.1958 72.8617C96.1958 72.8617 82.2389 72.1446 74.0917 75.1902C58.5054 81.0226 58.0152 95.5059 60.8792 102.033C74.5139 103.14 76.3384 93.586 81.776 84.581C87.2135 75.576 92.8008 73.9556 96.1958 72.8617Z" fill="#2C5900"/>
<path d="M81.776 84.581C76.3838 93.5134 74.5411 102.977 61.2151 102.055C61.964 97.3941 67.0793 92.5149 75.9118 83.5915C80.1102 79.3477 88.1031 75.6395 95.6512 72.8391C96.0006 72.8527 96.1958 72.8617 96.1958 72.8617C92.8007 73.9556 87.2135 75.576 81.776 84.581Z" fill="#2C5900"/>
<path d="M22.8802 74.7317C22.8802 74.7363 22.8848 74.7408 22.8893 74.7408C28.227 82.829 31.2453 90.9535 43.9131 88.97C46.2824 82.248 44.721 67.8373 28.7444 63.1804C21.3688 61.029 9.69493 62.1411 7.07149 62.4315C7.04426 62.4361 7.02611 62.4361 7.00341 62.4406C6.70385 62.4724 6.53137 62.4951 6.53137 62.4951C9.99903 63.3348 15.6953 64.5375 21.7818 73.1159C21.9725 73.3837 22.1585 73.6515 22.3401 73.9193C22.3628 73.9511 22.3855 73.9829 22.4036 74.0146C22.5625 74.2552 22.7214 74.4912 22.8802 74.7317Z" fill="#2C5900"/>
<path d="M54.2662 104.397L52.6413 104.302C52.6549 104.062 53.953 80.1647 44.78 68.0642L46.0781 67.0793C55.6142 79.6609 54.3252 103.394 54.2662 104.397Z" fill="#459B06"/>
<path d="M29.0764 25.8849C29.0764 25.8849 40.0059 37.1821 47.0683 45.8285C60.5758 62.368 53.4681 74.8543 51.4891 81.5808C36.4838 74.1916 32.4987 58.7596 31.3685 45.0342C30.2383 31.3088 30.901 29.6885 29.0764 25.8849Z" fill="#377705"/>
<path d="M47.0631 45.8285C39.7283 37.409 29.0712 25.8849 29.0712 25.8849C34.2046 32.6341 47.3354 58.2467 50.8621 78.1313C51.0391 79.1208 51.266 80.6141 51.4839 81.5808C54.1709 74.8225 60.7885 61.5873 47.0631 45.8285Z" fill="#459B06"/>
<path d="M54.2026 107.32C54.0755 106.953 51.1208 98.143 51.4566 83.2693C51.7698 69.5847 55.0877 48.0208 69.1354 22.9801L70.556 23.7789C56.6944 48.4883 53.4083 69.7436 53.0906 83.2239C52.7457 97.8298 55.7141 106.708 55.7458 106.799L54.2026 107.32Z" fill="#459B06"/>
<path d="M53.1406 108.882C53.0634 108.537 51.2116 100.29 53.245 87.5312C55.115 75.7938 60.7976 57.9063 77.2508 39.338L78.4717 40.4182C62.309 58.6598 56.7172 76.1978 54.8699 87.6991C52.8682 100.167 54.711 108.428 54.7292 108.51L53.1406 108.882Z" fill="#459B06"/>
<path d="M48.1615 108.187L46.7817 107.325C46.8316 107.243 51.9015 98.9645 52.9862 84.1589C53.9893 70.4789 51.7017 48.2749 35.1033 20.1615L36.5058 19.3354C53.3493 47.8664 55.646 70.4652 54.6021 84.3949C53.4628 99.5636 48.3748 107.842 48.1615 108.187Z" fill="#459B06"/>
<path d="M87.1 46.8504C87.1 46.8504 84.9078 62.414 82.4296 73.3026C77.6865 94.1268 63.4709 96.1965 56.9532 98.77C53.5536 82.3939 63.2803 69.7669 73.4064 60.4351C83.5371 51.0987 85.221 50.6267 87.1 46.8504Z" fill="#377705"/>
<path d="M82.4296 73.2975C84.5628 62.3407 87.1 46.8452 87.1 46.8452C84.935 55.0378 72.8027 81.1451 59.2906 96.1504C58.6189 96.8993 57.5795 97.9977 56.9486 98.7648C63.9339 96.7269 78.4399 93.8129 82.4296 73.2975Z" fill="#459B06"/>
<path d="M30.4102 61.3785C30.4102 61.3785 31.4904 73.6878 33.02 82.248C35.9475 98.6286 47.517 99.6226 52.7457 101.37C56.2905 88.1576 48.8968 78.5398 41.0174 71.5682C33.138 64.6011 31.7763 64.3015 30.4102 61.3785Z" fill="#377705"/>
<path d="M33.02 82.248C31.7763 73.6106 30.4102 61.3785 30.4102 61.3785C31.8081 67.81 40.5544 88.0623 50.9483 99.4002C51.4658 99.9631 52.2691 100.794 52.7457 101.375C47.113 100.072 35.3484 98.4198 33.02 82.248Z" fill="#459B06"/>
<path d="M81.7034 71.4327C81.7034 71.4327 67.8645 73.3707 60.439 77.905C46.237 86.5832 48.5019 100.899 52.546 106.767C66.1443 105.274 66.1261 95.5429 69.7572 85.671C73.3928 75.799 78.5761 73.1484 81.7034 71.4327Z" fill="#5AB502"/>
<path d="M69.7617 85.6703C66.1578 95.4606 66.1397 105.101 52.8818 106.721C52.7365 102.001 56.8351 96.2458 63.8158 85.8065C67.1337 80.8455 74.2824 75.6894 81.1632 71.5092C81.5082 71.4547 81.7033 71.4275 81.7033 71.4275C78.5761 73.1477 73.3927 75.7984 69.7617 85.6703Z" fill="#459B06"/>
<path d="M66.3757 29.9063C66.3757 29.9063 58.7324 17.8058 67.8282 12.6497C76.9194 7.4936 80.5868 5.45567 81.2631 2.60529C82.6202 8.85071 86.4237 27.5098 66.3757 29.9063Z" fill="white"/>
<path d="M71.2232 21.3325C67.4923 19.0267 65.4816 20.924 63.6479 22.9755C64.3878 26.7473 66.3803 29.9018 66.3803 29.9018C68.6497 29.6294 70.6105 29.1483 72.308 28.5038C73.7605 27.0151 73.411 22.6896 71.2232 21.3325Z" fill="#FFFFCA"/>
<path d="M68.046 29.4842C67.7601 30.0697 66.9794 30.2785 66.2986 29.9472C65.6177 29.6158 65.3 28.876 65.5814 28.2905L71.1279 16.8799C71.4138 16.2944 72.1945 16.0856 72.8708 16.4169C73.5516 16.7483 73.8693 17.4881 73.5879 18.0736L68.046 29.4842Z" fill="#FBDE16"/>
<path d="M76.1754 42.1021C76.1754 42.1021 71.1328 28.7081 81.0773 25.4946C91.0219 22.2766 95.0206 21.0238 96.2597 18.3686C96.3278 24.7502 96.2915 43.7997 76.1754 42.1021Z" fill="white"/>
<path d="M82.6475 34.6812C79.4567 31.6674 77.1101 33.1243 74.8951 34.7674C74.8588 38.6118 76.1751 42.1021 76.1751 42.1021C78.4536 42.2928 80.4734 42.2202 82.2662 41.9251C83.991 40.7587 84.5175 36.4513 82.6475 34.6812Z" fill="#FFFFCA"/>
<path d="M77.8953 42.0204C77.5004 42.5379 76.6925 42.5832 76.0934 42.1203C75.4943 41.6573 75.3309 40.8676 75.7257 40.3501L83.4599 30.2921C83.8548 29.7747 84.6627 29.7293 85.2618 30.1923C85.8609 30.6552 86.0243 31.445 85.6295 31.9624L77.8953 42.0204Z" fill="#FBDE16"/>
<path d="M40.4863 27.5597C40.4863 27.5597 26.1799 27.1739 26.956 16.7528C27.7322 6.32712 28.0771 2.1514 26.0891 0C32.0259 2.34657 49.6501 9.57238 40.4863 27.5597Z" fill="white"/>
<path d="M36.0564 18.768C32.0622 20.5836 32.5252 23.3114 33.2105 25.9757C36.7554 27.4599 40.4863 27.5597 40.4863 27.5597C41.5257 25.5218 42.2156 23.6246 42.6241 21.8545C42.1929 19.8165 38.403 17.7014 36.0564 18.768Z" fill="#FFFFCA"/>
<path d="M41.0627 25.9394C41.3895 26.5022 41.1262 27.2647 40.4772 27.646C39.8236 28.0272 39.0293 27.882 38.7025 27.3192L32.3073 16.3625C31.9805 15.7997 32.2438 15.0371 32.8974 14.6559C33.5509 14.2746 34.3452 14.4199 34.672 14.9827L41.0627 25.9394Z" fill="#FBDE16"/>
<path d="M74.6183 108.855C74.6183 113.28 65.5452 116.87 54.357 116.87C43.1643 116.87 34.0957 113.28 34.0957 108.855C34.0957 104.429 43.1688 100.839 54.357 100.839C65.5452 100.839 74.6183 104.425 74.6183 108.855Z" fill="#8A5D33"/>
<path d="M70.8102 140C59.8762 140 48.9422 140 38.0082 140C35.6071 128.689 33.2061 117.383 30.8051 106.072C46.5412 106.072 62.2773 106.072 78.0088 106.072C75.6169 117.383 73.2113 128.694 70.8102 140Z" fill="#E08D53"/>
<path d="M54.6339 106.072H30.8096C33.2106 117.383 35.6116 128.689 38.0127 140H54.6384V106.072H54.6339Z" fill="#CC7C3A"/>
<path d="M30.8096 106.072C32.6614 114.787 34.5087 123.506 36.3605 132.22C44.8254 119.267 60.9428 112.018 76.6789 112.372C77.1237 110.271 77.5731 108.174 78.0179 106.072C62.2772 106.072 46.5457 106.072 30.8096 106.072Z" fill="#CECECE"/>
<path d="M78.8167 105.482H29.8927V111.669H78.8167V105.482Z" fill="#E08D53"/>
<path d="M54.5567 105.482H29.8927V111.669H54.5567V105.482Z" fill="#CC7C3A"/>
</svg>
